<svg version="1.1" xmlns="http://www.w3.org/2000/svg" width="1024" height="1024">

<path d="M0 0 C5.69093745 2.41548678 9.07382259 7.40573809 13 12 C13.51385254 12.59232422 14.02770508 13.18464844 14.55712891 13.79492188 C28.3794998 29.78125672 40.27675085 47.22751942 50 66 C50.39638672 66.75619629 50.79277344 67.51239258 51.20117188 68.29150391 C61.35261883 87.87777851 69.1049876 109.24064502 73 131 C73.21994629 132.15483887 73.21994629 132.15483887 73.44433594 133.33300781 C76.10821645 147.92419849 76.31365707 162.52622004 76.375 177.3125 C76.38285522 178.24277008 76.39071045 179.17304016 76.39880371 180.13150024 C76.51962931 198.53327912 73.93733948 215.68662898 69.25805664 233.453125 C68.68624066 235.62979379 68.13233124 237.81048293 67.58007812 239.9921875 C64.08079039 253.60609988 59.70584002 266.97075744 53.8125 279.75 C53.43577148 280.57306641 53.05904297 281.39613281 52.67089844 282.24414062 C44.7332061 299.36160919 35.6437174 315.42149917 25 331 C24.54737793 331.66644531 24.09475586 332.33289063 23.62841797 333.01953125 C19.07513765 339.68640324 14.25327382 346.06522993 9.0625 352.25 C8.60149902 352.79970459 8.14049805 353.34940918 7.66552734 353.91577148 C5.5565704 356.37596079 3.71764896 358.18823403 1 360 C-3.86906781 355.3508139 -8.15118954 350.50843144 -12.1875 345.125 C-12.74429443 344.38668945 -13.30108887 343.64837891 -13.87475586 342.88769531 C-15.59222323 340.59838634 -17.2976183 338.30054257 -19 336 C-19.51788086 335.30551758 -20.03576172 334.61103516 -20.56933594 333.89550781 C-28.47221753 323.24468284 -35.24407357 312.12582966 -41.62451172 300.50439453 C-42.89447073 298.19214045 -44.18209614 295.89063524 -45.47265625 293.58984375 C-55.07760933 276.23654424 -61.21033884 258.19285649 -66 239 C-66.45809464 237.22650083 -66.916425 235.45306253 -67.375 233.6796875 C-70.4457331 221.55878719 -72.54746944 209.41687453 -74 197 C-74.09571289 196.19224121 -74.19142578 195.38448242 -74.29003906 194.55224609 C-80.90363991 134.40166489 -58.40514424 71.94151436 -21.42285156 24.99804688 C-18.37571788 21.24681822 -15.21275624 17.60977978 -12 14 C-10.707726 12.5213639 -9.41597878 11.04226707 -8.125 9.5625 C-7.59003906 8.95535156 -7.05507813 8.34820312 -6.50390625 7.72265625 C-4.28945694 5.18610522 -2.14274504 2.59726672 0 0 Z " fill="#181A15" transform="translate(511,288)" data-index="1" style="visibility: visible; opacity: 1;"></path>
<path d="M0 0 C1.2271875 0.00902344 2.454375 0.01804687 3.71875 0.02734375 C5.09546875 0.04474609 5.09546875 0.04474609 6.5 0.0625 C2.5472135 48.22196005 -21.89240506 96.04422684 -54.5 131.0625 C-55.65042183 132.39187633 -56.79644388 133.72507608 -57.9375 135.0625 C-65.4101118 143.60017371 -73.58307815 151.06577666 -82.5 158.0625 C-83.50933594 158.86558594 -84.51867187 159.66867187 -85.55859375 160.49609375 C-128.87443274 194.6783485 -190.57123456 221.1843014 -246.5 220.0625 C-245.71625 219.03125 -244.9325 218 -244.125 216.9375 C-227.92635679 195.25099869 -214.44410242 172.5003053 -202.05029297 148.44628906 C-192.90330872 130.7166898 -183.02355363 113.36883438 -171.5 97.0625 C-171.04834473 96.42151367 -170.59668945 95.78052734 -170.13134766 95.12011719 C-163.15569873 85.31068562 -155.53434358 76.37103702 -147.14013672 67.74951172 C-145.63386838 66.20019432 -144.1453131 64.63591706 -142.66015625 63.06640625 C-107.70681302 26.88122713 -50.75026559 -0.48798332 0 0 Z " fill="#181915" transform="translate(774.5,428.9375)" data-index="2" style="visibility: visible; opacity: 1;"></path>
<path d="M0 0 C33.76667213 -1.36278049 69.63339058 9.88952577 99 26 C100.3448943 26.7164421 101.68995026 27.43258081 103.03515625 28.1484375 C120.81023346 37.74473321 136.33069056 50.18501114 151 64 C151.99 64.92619141 151.99 64.92619141 153 65.87109375 C158.14815784 70.8404961 162.56007273 76.40087989 167 82 C167.79535156 82.99 168.59070313 83.98 169.41015625 85 C184.30961751 103.88996674 195.93435981 124.95249197 206.875 146.3125 C218.0686483 168.15463627 230.47662643 188.76495418 245.16601562 208.41723633 C247.9739424 212.18308374 250.7011801 215.89200054 253 220 C192.46435937 221.80811352 122.12527429 188.91475746 78.48046875 148.29296875 C76.36490252 146.33731934 74.20756709 144.47434119 72 142.625 C52.29761722 125.41049448 36.99966764 102.01934504 25 79 C24.60071289 78.23945313 24.20142578 77.47890625 23.79003906 76.6953125 C12.22388721 54.37561899 0 25.48850594 0 0 Z " fill="#181A15" transform="translate(243,429)" data-index="3" style="visibility: visible; opacity: 1;"></path>
<path d="M0 0 C0 3 0 3 -1.625 4.83984375 C-36.94495184 36.03526174 -80.63694222 59.10203942 -127 68 C-128.78857422 68.34998047 -128.78857422 68.34998047 -130.61328125 68.70703125 C-175.46913623 76.79388448 -229.49908559 71.48078055 -270 50 C-267.10193385 48.0679559 -265.78584986 47.60979687 -262.4765625 47.02734375 C-261.09126343 46.76884644 -261.09126343 46.76884644 -259.67797852 46.50512695 C-258.16675415 46.22415161 -258.16675415 46.22415161 -256.625 45.9375 C-228.30666452 40.31527121 -200.27791128 30.51629537 -174.77246094 16.93261719 C-173.0428803 16.02256236 -171.291061 15.15517462 -169.5390625 14.2890625 C-151.86476169 5.3543718 -135.60091412 -6.4005179 -120.0703125 -18.62109375 C-92.78983462 -39.75825791 -26.13627983 -13.17268503 0 0 Z " fill="#181915" transform="translate(825,609)" data-index="4" style="visibility: visible; opacity: 1;"></path>
<path d="M0 0 C0.98315186 -0.0093457 1.96630371 -0.01869141 2.97924805 -0.02832031 C14.63086554 0.02317855 21.82519198 1.75761872 30.9375 9.1875 C32.69335927 10.55886574 34.4525256 11.92600692 36.21484375 13.2890625 C37.08351074 13.96356445 37.95217773 14.63806641 38.84716797 15.33300781 C79.06916913 45.83553371 127.74139992 61.41083987 176.375 72.25 C172.59016633 75.64506761 168.16491061 76.95538009 163.4375 78.5625 C162.11492187 79.01653198 162.11492187 79.01653198 160.765625 79.47973633 C119.88643681 93.30970921 75.17222522 99.92282638 32.375 91.25 C31.51100586 91.07839355 30.64701172 90.90678711 29.75683594 90.72998047 C-17.50419843 81.06177252 -59.20061586 56.09587486 -95.625 25.25 C-75.45438064 3.43177095 -27.74170823 0.17976576 0 0 Z " fill="#181915" transform="translate(293.625,585.75)" data-index="5" style="visibility: visible; opacity: 1;"></path>
<path d="M0 0 C2.28929675 0.44405721 3.99752261 0.32208465 6.30102539 0.00219727 C22.9080093 -2.06922969 35.0018504 0.13670552 50.10571289 7.40844727 C51.10103027 7.86429199 51.10103027 7.86429199 52.11645508 8.3293457 C62.87052899 13.26796039 70.84125367 20.15702096 75.10571289 31.40844727 C78.40261073 41.45507515 76.59004588 54.1213671 72.10571289 63.40844727 C66.3638512 73.34514056 58.07351951 81.50086986 50.04321289 89.59594727 C49.57310791 90.07080566 49.10300293 90.54566406 48.61865234 91.03491211 C45.25798837 94.38000945 41.74157332 97.50928482 38.16064453 100.61621094 C28.7524304 108.8217117 19.74845256 117.27540724 11.91137695 127.01611328 C9.55709996 129.90881427 7.66068627 132.10440329 4.10571289 133.40844727 C3.42508789 132.58344727 2.74446289 131.75844727 2.04321289 130.90844727 C-3.74627112 123.97833334 -9.75469702 117.3545208 -16.14428711 110.97094727 C-16.79268555 110.3219043 -17.44108398 109.67286133 -18.10913086 109.00415039 C-21.95838515 105.1978391 -25.9247178 101.57216658 -30.01928711 98.03173828 C-34.23722479 94.38003677 -38.33234339 90.5928961 -42.41137695 86.78735352 C-43.7892235 85.50614224 -45.17917362 84.2379813 -46.57006836 82.97094727 C-57.39373553 72.73643772 -65.61909351 60.72538757 -66.2902832 45.51953125 C-66.50332239 34.68335561 -63.79716256 26.79493801 -56.86303711 18.43579102 C-53.58161128 15.0567037 -49.98642233 12.70544769 -45.89428711 10.40844727 C-45.03319336 9.91731445 -44.17209961 9.42618164 -43.28491211 8.92016602 C-29.79178115 1.70767751 -15.18221166 -4.38489306 0 0 Z " fill="#171914" transform="translate(506.894287109375,663.591552734375)" data-index="6" style="visibility: visible; opacity: 1;"></path>
<path d="M0 0 C2.73927246 1.01758419 5.38176547 2.21546218 8.03515625 3.4375 C8.81488297 3.7899025 9.59460968 4.14230499 10.39796448 4.50538635 C12.95588852 5.66360211 15.50909897 6.83185124 18.0625 8 C19.84070162 8.80652902 21.61918857 9.61242924 23.39794922 10.41772461 C32.50587947 14.54812563 41.58969389 18.72943985 50.66015625 22.94140625 C52.35342095 23.72594016 54.04669869 24.5104459 55.73999023 25.29492188 C58.94572858 26.78049535 62.146234 28.27663842 65.34399414 29.77929688 C66.80471556 30.45862305 68.26556471 31.13767466 69.7265625 31.81640625 C70.37798721 32.1259877 71.02941193 32.43556915 71.70057678 32.75453186 C75.45198461 34.48629476 78.86857323 35.668429 83 36 C85.74448089 34.71859681 85.74448089 34.71859681 88.25 32.625 C89.68472656 31.51511719 89.68472656 31.51511719 91.1484375 30.3828125 C93.80593399 28.16216475 96.34570364 25.86452136 98.875 23.5 C109.19967479 14.01113222 122.01904341 5.96981582 136.41015625 6.5625 C139 7 139 7 141.8125 8.9375 C143.53232751 13.37284463 143.41617811 16.46963917 142 21 C135.64418298 34.20663536 124.3008802 44.10886631 113 53 C111.27611126 54.37657586 109.56667579 55.77152454 107.875 57.1875 C106.78832031 58.07501953 106.78832031 58.07501953 105.6796875 58.98046875 C103.43583019 61.6783158 103.31503523 63.51197481 103 67 C103.51768599 70.47178974 103.51768599 70.47178974 104.52294922 74.13525391 C104.69676117 74.8222084 104.87057312 75.5091629 105.0496521 76.2169342 C105.62347616 78.47317624 106.21393438 80.72469951 106.8046875 82.9765625 C107.20832409 84.54997605 107.61090638 86.12366041 108.01248169 87.69760132 C109.07025248 91.83172877 110.14218201 95.96205515 111.21716309 100.09173584 C112.30823516 104.29334526 113.38601839 108.49835772 114.46484375 112.703125 C116.36253045 120.09282108 118.27185999 127.47942318 120.18966675 134.86392212 C120.45707672 135.89882782 120.72448669 136.93373352 121 138 C121.1975589 138.75985199 121.3951178 139.51970398 121.59866333 140.30258179 C122.51112739 144.16176843 122.82952634 148.43853865 120.9375 152 C117.72709945 153.65698093 115.54406288 153.54994079 112 153 C107.10450482 148.05513848 103.97134189 142.01679102 100.5625 136 C91.23923261 119.79748875 81.67623807 103.64163187 70 89 C66.56346463 90.26031281 63.76669542 91.69743622 60.8203125 93.86328125 C60.05589844 94.42080078 59.29148437 94.97832031 58.50390625 95.55273438 C57.32634766 96.42381836 57.32634766 96.42381836 56.125 97.3125 C54.56519268 98.45454798 53.00529804 99.59647671 51.4453125 100.73828125 C50.69830078 101.30571045 49.95128906 101.87313965 49.18164062 102.45776367 C47 104 47 104 44.89648438 105.02075195 C42.67694518 106.16185024 41.46509559 106.96304452 40 109 C39.06467784 113.8418277 39.15123101 118.65201524 39.25 123.5625 C39.27476165 126.18945739 39.27360669 128.81410147 39.265625 131.44140625 C39.28399414 132.60357666 39.30236328 133.76574707 39.32128906 134.96313477 C38.97113254 138.27285888 38.23933024 139.59961194 36 142 C32.72265625 141.88671875 32.72265625 141.88671875 29 141 C26.99609375 138.33203125 26.99609375 138.33203125 25.4375 134.8125 C25.14270752 134.18609619 24.84791504 133.55969238 24.54418945 132.91430664 C23.09535622 129.78214921 21.90736799 126.70878019 20.859375 123.4140625 C17.06499217 112.15739342 9.77801958 107.63809894 0.09179688 101.37744141 C-2.56411124 99.62853459 -5.07029652 97.72366437 -7.5625 95.75 C-8.22378906 95.22921875 -8.88507812 94.7084375 -9.56640625 94.171875 C-11 93 -11 93 -12 92 C-12.1875 89.5625 -12.1875 89.5625 -12 87 C-10 85 -10 85 -6.47265625 84.75 C-1.65078514 84.87187984 2.88395601 85.89477333 7.5625 87 C17.15510723 89.72581047 17.15510723 89.72581047 26.34375 87.55859375 C27.0553125 86.85863281 27.766875 86.15867187 28.5 85.4375 C29.33144531 84.62796875 30.16289063 83.8184375 31.01953125 82.984375 C31.48053223 82.51966797 31.9415332 82.05496094 32.41650391 81.57617188 C34.25031736 79.75084044 36.12970749 77.97869066 38.01171875 76.203125 C39.40500263 74.86599567 40.79693103 73.52745252 42.1875 72.1875 C43.21423828 71.21864868 43.21423828 71.21864868 44.26171875 70.23022461 C44.89078125 69.61155518 45.51984375 68.99288574 46.16796875 68.35546875 C46.73797607 67.80528076 47.3079834 67.25509277 47.89526367 66.68823242 C49.23166164 65.03971423 49.23166164 65.03971423 48.75463867 62.90429688 C45.98504787 55.91535859 38.70185513 50.93736689 33.0234375 46.41796875 C29.79609569 43.83692924 26.64434756 41.18073997 23.5 38.5 C19.53153435 35.12651283 15.53980942 31.78821697 11.5 28.5 C7.32446081 25.09702753 3.1814691 21.65854137 -0.9375 18.1875 C-1.48148438 17.73117188 -2.02546875 17.27484375 -2.5859375 16.8046875 C-10.84590896 9.82181886 -10.84590896 9.82181886 -11.5625 6 C-11 3 -11 3 -8.875 0.5625 C-5.20851115 -1.43015698 -4.01508305 -0.98186468 0 0 Z " fill="#181A15" transform="translate(587,155)" data-index="7" style="visibility: visible;"></path>
<path d="M0 0 C6.95273139 22.25462704 6.95273139 22.25462704 8 31 C8.16435547 32.32064453 8.16435547 32.32064453 8.33203125 33.66796875 C10.14216421 51.93824412 9.62805362 70.4583745 6.41796875 88.52539062 C6.01974587 90.88309336 5.72160201 93.2356821 5.4375 95.609375 C4.0624519 104.99487775 4.0624519 104.99487775 0.57714844 108.38330078 C-3.01825984 111.0510979 -6.9689354 112.97691582 -10.97753906 114.94042969 C-14.27679132 116.66891288 -17.24791089 118.80545866 -20.25 121 C-20.82766113 121.41870361 -21.40532227 121.83740723 -22.00048828 122.26879883 C-42.69384375 137.42569673 -60.34413028 155.14873977 -75.28320312 175.96191406 C-77.36732973 178.85314387 -79.43372379 181.52925196 -82 184 C-81.08513712 178.30026884 -80.16035985 172.61771073 -78.9296875 166.9765625 C-75.9833822 152.59309977 -75.58760262 138.44378567 -75.5625 123.8125 C-75.55659851 122.84942932 -75.55069702 121.88635864 -75.5446167 120.894104 C-75.47461741 104.01350567 -76.00395016 86.23361547 -81.546875 70.12109375 C-82.14311077 67.33009355 -81.88829287 65.72218784 -81 63 C-73.05195872 50.73635559 -62.32873878 39.19893589 -51 30 C-50.31421875 29.41476562 -49.6284375 28.82953125 -48.921875 28.2265625 C-15.05 0 -15.05 0 0 0 Z " fill="#181A16" transform="translate(674,339)" data-index="8" style="visibility: visible;"></path>
<path d="M0 0 C22.2895013 6.83970374 41.0371355 21.42443297 58 37 C59.26070312 38.15242188 59.26070312 38.15242188 60.546875 39.328125 C67.10306551 45.60532868 72.52279795 52.78984713 78 60 C78.62132812 60.63292969 79.24265625 61.26585937 79.8828125 61.91796875 C81.67458334 65.25717805 80.69792121 68.44264254 80 72 C79.77441406 73.27617187 79.54882812 74.55234375 79.31640625 75.8671875 C79.19434814 76.51478027 79.07229004 77.16237305 78.9465332 77.82958984 C74.4128191 101.97673337 73.98020102 125.80438355 76.3125 150.25 C76.43004639 151.49740967 76.54759277 152.74481934 76.66870117 154.0300293 C77.47786044 161.80881602 78.79018258 169.32383891 80.50073242 176.94433594 C81 180 81 180 80 183 C79.57332031 182.319375 79.14664063 181.63875 78.70703125 180.9375 C67.1993926 163.09472831 53.10488802 145.70071741 36 133 C35.14784912 132.36352539 34.29569824 131.72705078 33.41772461 131.07128906 C22.52680773 123.04008634 11.18619201 114.98801487 -0.72021484 108.52294922 C-3.57922348 106.61306532 -4.01498404 104.803995 -4.76367188 101.5234375 C-4.90353516 100.81445312 -5.04339844 100.10546875 -5.1875 99.375 C-5.33896484 98.72015625 -5.49042969 98.0653125 -5.64648438 97.390625 C-8.70340983 83.28974332 -9.38023717 69.0014246 -9.3125 54.625 C-9.31067719 53.8167276 -9.30885437 53.0084552 -9.30697632 52.1756897 C-9.14384204 9.14384204 -9.14384204 9.14384204 0 0 Z " fill="#181A15" transform="translate(351,339)" data-index="9" style="visibility: visible; opacity: 1;"></path>
<path d="M0 0 C2.5625 0.1875 2.5625 0.1875 4.5625 2.1875 C5.16796875 4.83984375 5.16796875 4.83984375 4.5625 8.1875 C2.31600436 11.05649005 -0.38315577 13.36291767 -3.125 15.75 C-4.6895367 17.15659206 -6.25201317 18.56547882 -7.8125 19.9765625 C-8.59367188 20.67813477 -9.37484375 21.37970703 -10.1796875 22.10253906 C-12.27627122 24.03861443 -14.27567025 26.02618003 -16.25 28.0859375 C-16.82403564 28.68462646 -17.39807129 29.28331543 -17.98950195 29.90014648 C-19.05222638 31.02093288 -20.10603631 32.15026422 -21.14916992 33.28930664 C-24.39677659 36.67737978 -26.71036947 38.0468913 -31.4375 38.1875 C-33.375 37.0625 -33.375 37.0625 -34.4375 35.1875 C-34.14082352 30.45573608 -32.11318274 28.38172518 -28.80859375 25.1328125 C-28.3406691 24.66817596 -27.87274445 24.20353943 -27.39064026 23.724823 C-25.89456143 22.24443681 -24.38493186 20.77873919 -22.875 19.3125 C-21.88650554 18.33550908 -20.89886663 17.35765172 -19.91210938 16.37890625 C-14.58355694 11.11796687 -9.12486238 6.05744212 -3.4375 1.1875 C-2.4375 0.1875 -2.4375 0.1875 0 0 Z " fill="#1E1F1A" transform="translate(583.4375,275.8125)" data-index="10" style="visibility: visible;"></path>
<path d="M0 0 C0.66 0.99 1.32 1.98 2 3 C2.33 2.34 2.66 1.68 3 1 C4.98 1 6.96 1 9 1 C8.61328125 1.43570312 8.2265625 1.87140625 7.828125 2.3203125 C5.36664373 5.13517474 3.11217887 7.82051381 1.125 11 C-1.64223176 14.90668013 -4.82884141 18.56876604 -9 21 C-12.37352536 20.76440462 -13.58657183 20.41342817 -16 18 C-15.875 15.5 -15.875 15.5 -15 13 C-14.44054687 12.73445313 -13.88109375 12.46890625 -13.3046875 12.1953125 C-10.05710453 10.51097286 -7.76500158 7.97581528 -5.25 5.375 C-4.74339844 4.859375 -4.23679687 4.34375 -3.71484375 3.8125 C-2.47196098 2.54616661 -1.23534724 1.2736856 0 0 Z " fill="#1B1C18" transform="translate(565,293)" data-index="11" style="visibility: visible;"></path>
<path d="M0 0 C6.03965039 0.1228025 11.86661449 1.82178542 17.6875 3.3125 C16.4375 4.8125 16.4375 4.8125 14.6875 6.3125 C13.3675 6.3125 12.0475 6.3125 10.6875 6.3125 C10.6875 5.6525 10.6875 4.9925 10.6875 4.3125 C9.6975 4.3125 8.7075 4.3125 7.6875 4.3125 C7.605 5.09625 7.5225 5.88 7.4375 6.6875 C6.6875 9.3125 6.6875 9.3125 4.9375 10.6875 C2.09268065 11.4777276 0.48062057 11.24354019 -2.3125 10.3125 C-4.125 9.0625 -4.125 9.0625 -5.3125 7.3125 C-5.625 4.75 -5.625 4.75 -5.3125 2.3125 C-3.3125 0.3125 -3.3125 0.3125 0 0 Z " fill="#151612" transform="translate(580.3125,239.6875)" data-index="12" style="visibility: visible;"></path>
<path d="M0 0 C2 2 2 2 2.1953125 5.4765625 C2.18201493 6.85950968 2.15816232 8.24238654 2.125 9.625 C2.11597656 10.33140625 2.10695313 11.0378125 2.09765625 11.765625 C2.07407603 13.51056098 2.03820461 15.25532295 2 17 C1.01 17.33 0.02 17.66 -1 18 C-1.33 16.68 -1.66 15.36 -2 14 C-3.1446875 14.556875 -3.1446875 14.556875 -4.3125 15.125 C-5.199375 15.41375 -6.08625 15.7025 -7 16 C-10.86107457 13.42595029 -10.94319692 11.38979741 -12 7 C-9.39583333 6.47916667 -6.79166667 5.95833333 -4.1875 5.4375 C-3.465625 5.293125 -2.74375 5.14875 -2 5 C-2.33 4.01 -2.66 3.02 -3 2 C-2.01 2 -1.02 2 0 2 C0 1.34 0 0.68 0 0 Z " fill="#181A15" transform="translate(624,276)" data-index="13" style="visibility: visible;"></path>
<path d="M0 0 C0.66 0.33 1.32 0.66 2 1 C-3.94 6.94 -9.88 12.88 -16 19 C-14.35 18.34 -12.7 17.68 -11 17 C-11 18.98 -11 20.96 -11 23 C-10.34 23.33 -9.68 23.66 -9 24 C-9.66 25.98 -10.32 27.96 -11 30 C-11.99 30 -12.98 30 -14 30 C-13.67 28.68 -13.34 27.36 -13 26 C-13.94875 26.185625 -14.8975 26.37125 -15.875 26.5625 C-19 27 -19 27 -21 26 C-21 26.66 -21 27.32 -21 28 C-21.99 27.67 -22.98 27.34 -24 27 C-21.59578922 21.28999941 -19.21950492 17.95959775 -14.4375 14.07421875 C-11.2904032 11.39616041 -8.4059227 8.49758486 -5.5 5.5625 C-4.95923828 5.01754883 -4.41847656 4.47259766 -3.86132812 3.91113281 C-2.57212832 2.609489 -1.28575768 1.30504404 0 0 Z " fill="#121310" transform="translate(632,224)" data-index="14" style="visibility: visible;"></path>
<path d="M0 0 C0 0.99 0 1.98 0 3 C0.598125 2.835 1.19625 2.67 1.8125 2.5 C4 2 4 2 7 2 C2.38 6.62 -2.24 11.24 -7 16 C-7.66 15.67 -8.32 15.34 -9 15 C-6.36 12.36 -3.72 9.72 -1 7 C-2.65 7 -4.3 7 -6 7 C-6.99 7 -7.98 7 -9 7 C-13.87333908 10.34171822 -17.88244831 14.79049306 -22 19 C-22 15.25646555 -21.21606846 14.83114528 -18.640625 12.2421875 C-17.93679688 11.53449219 -17.23296875 10.82679688 -16.5078125 10.09765625 C-15.76273438 9.36417969 -15.01765625 8.63070313 -14.25 7.875 C-13.52039063 7.13378906 -12.79078125 6.39257812 -12.0390625 5.62890625 C-11.33007812 4.92378906 -10.62109375 4.21867187 -9.890625 3.4921875 C-8.91657715 2.52321533 -8.91657715 2.52321533 -7.92285156 1.53466797 C-5.19001652 -0.64646473 -3.22318074 -1.61159037 0 0 Z M-5 1 C-5.66 2.32 -6.32 3.64 -7 5 C-6.01 4.34 -5.02 3.68 -4 3 C-4.33 2.34 -4.66 1.68 -5 1 Z " fill="#0D0E0B" transform="translate(574,288)" data-index="15" style="visibility: visible;"></path>
<path d="M0 0 C0.84151611 0.00193359 1.68303223 0.00386719 2.55004883 0.00585938 C8.69730135 0.048405 14.77132085 0.35689656 20.875 1.125 C17.14959338 3.60860441 15.24437027 3.3565867 10.80078125 3.3203125 C10.1169487 3.3174826 9.43311615 3.31465271 8.7285614 3.31173706 C6.54802835 3.30055684 4.36790855 3.27545691 2.1875 3.25 C0.70768823 3.23996738 -0.77212999 3.23084202 -2.25195312 3.22265625 C-5.876436 3.20062481 -9.50067766 3.16611002 -13.125 3.125 C-13.455 2.465 -13.785 1.805 -14.125 1.125 C-9.41226582 -0.07703341 -4.82777226 -0.02655488 0 0 Z " fill="#1F201D" transform="translate(728.125,585.875)" data-index="16" style="visibility: visible; opacity: 1;"></path>
<path d="M0 0 C0.33 0 0.66 0 1 0 C1.97015022 8.71402784 2.16518169 17.42689067 2.25 26.1875 C2.27126953 27.3108374 2.29253906 28.4341748 2.31445312 29.59155273 C2.31896484 30.64802002 2.32347656 31.7044873 2.328125 32.79296875 C2.3374707 33.7471167 2.34681641 34.70126465 2.35644531 35.68432617 C2.18000488 36.83058472 2.18000488 36.83058472 2 38 C1.01 38.66 0.02 39.32 -1 40 C-1.02481819 35.26774472 -1.04291583 30.53552779 -1.05493164 25.80322266 C-1.05994375 24.19514302 -1.06675519 22.5870679 -1.07543945 20.97900391 C-1.08764226 18.66047039 -1.09325964 16.34199741 -1.09765625 14.0234375 C-1.10281754 13.31069672 -1.10797882 12.59795593 -1.11329651 11.86361694 C-1.11374755 7.80143571 -0.78775607 3.98511894 0 0 Z " fill="#23241F" transform="translate(681,370)" data-index="17" style="visibility: visible;"></path>
<path d="M0 0 C2.3125 0.4375 2.3125 0.4375 4.3125 2.4375 C4.4375 5.5625 4.4375 5.5625 4.3125 8.4375 C3.3225 8.7675 2.3325 9.0975 1.3125 9.4375 C0.3225 8.7775 -0.6675 8.1175 -1.6875 7.4375 C-1.6875 6.7775 -1.6875 6.1175 -1.6875 5.4375 C-5.04345828 6.03677826 -7.06551226 7.28372436 -9.6875 9.4375 C-7.84740464 4.92090231 -5.01112929 0.81576523 0 0 Z " fill="#131310" transform="translate(583.6875,275.5625)" data-index="18" style="visibility: visible;"></path>
<path d="M0 0 C1.32 0 2.64 0 4 0 C4.33 0.66 4.66 1.32 5 2 C5.66 1.67 6.32 1.34 7 1 C7.99 2.65 8.98 4.3 10 6 C7.36 6.33 4.72 6.66 2 7 C2.33 8.051875 2.66 9.10375 3 10.1875 C3.83966782 13.38873357 4.19750904 15.7411008 4 19 C2.05942221 16.08913331 1.24818263 13.95694301 0.3125 10.625 C0.04050781 9.68914062 -0.23148438 8.75328125 -0.51171875 7.7890625 C-1.02746703 4.84310834 -0.77611144 2.86484087 0 0 Z " fill="#11120F" transform="translate(593,402)" data-index="19" style="visibility: visible;"></path>
<path d="M0 0 C9.57142857 -0.14285714 9.57142857 -0.14285714 14 1 C13.67 1.66 13.34 2.32 13 3 C12.13375 3.1546875 12.13375 3.1546875 11.25 3.3125 C8.69964337 3.89922888 8.69964337 3.89922888 6.4375 6.5625 C5.633125 7.366875 4.82875 8.17125 4 9 C3.01 9 2.02 9 1 9 C0.67 6.03 0.34 3.06 0 0 Z " fill="#121310" transform="translate(751,588)" data-index="20" style="visibility: visible;"></path>
<path d="M0 0 C0.33 0.66 0.66 1.32 1 2 C0.40832031 2.31453125 -0.18335938 2.6290625 -0.79296875 2.953125 C-9.74371658 7.42716919 -9.74371658 7.42716919 -14.5625 15.6875 C-14.74941406 16.47511719 -14.93632812 17.26273438 -15.12890625 18.07421875 C-15.41636719 18.70972656 -15.70382812 19.34523438 -16 20 C-18.08984375 20.76953125 -18.08984375 20.76953125 -20 21 C-19.66143036 15.58288577 -16.60105708 11.81771819 -13 8 C-8.94373426 4.80691884 -4.64027057 2.24664683 0 0 Z " fill="#10100E" transform="translate(465,672)" data-index="21" style="visibility: visible;"></path>
<path d="M0 0 C0.33 0 0.66 0 1 0 C1.19945986 3.1660296 1.38234428 6.33281796 1.5625 9.5 C1.61857422 10.386875 1.67464844 11.27375 1.73242188 12.1875 C2.03215454 17.62265235 1.8483317 22.62094863 1 28 C0.67 28 0.34 28 0 28 C0 18.76 0 9.52 0 0 Z M2 9 C2.99 9.33 3.98 9.66 5 10 C5.75 12.25 5.75 12.25 6 15 C4.0625 17.3125 4.0625 17.3125 2 19 C2 15.7 2 12.4 2 9 Z " fill="#0C0D0B" transform="translate(600,447)" data-index="22" style="visibility: visible;"></path>
<path d="M0 0 C-16.95238095 9.80952381 -16.95238095 9.80952381 -22 12 C-22.99 11.67 -23.98 11.34 -25 11 C-21.04 9.02 -17.08 7.04 -13 5 C-13 4.01 -13 3.02 -13 2 C-12.34 2 -11.68 2 -11 2 C-11 2.66 -11 3.32 -11 4 C-10.2575 3.360625 -9.515 2.72125 -8.75 2.0625 C-3.6 -1.8 -3.6 -1.8 0 0 Z " fill="#10100E" transform="translate(778,646)" data-index="23" style="visibility: visible;"></path>
<path d="M0 0 C5.06998019 0.65419099 9.41990777 2.8546409 14 5 C11.28790442 6.80806372 9.10633303 8.06810009 6 9 C5.01 8.34 4.02 7.68 3 7 C3.33 5.68 3.66 4.36 4 3 C2.68 2.01 1.36 1.02 0 0 Z " fill="#11120E" transform="translate(390,635)" data-index="24" style="visibility: visible;"></path>
<path d="M0 0 C0.66 0.99 1.32 1.98 2 3 C-2.17737474 4.59138085 -5.53160785 5.21278058 -10 5 C-9.1875 2.5625 -9.1875 2.5625 -8 0 C-4.67212881 -1.1092904 -3.3006216 -1.01557588 0 0 Z " fill="#11130F" transform="translate(712,670)" data-index="25" style="visibility: visible;"></path>
<path d="M0 0 C7.6805543 2.28856245 15.34249954 4.63553669 23 7 C22.67 7.66 22.34 8.32 22 9 C19.36 8.67 16.72 8.34 14 8 C14 7.34 14 6.68 14 6 C13.40832031 5.87882813 12.81664062 5.75765625 12.20703125 5.6328125 C7.96196415 4.73255357 3.97560339 3.79543379 0 2 C0 1.34 0 0.68 0 0 Z " fill="#ECEBE9" transform="translate(567,664)" data-index="26" style="visibility: visible;"></path>
<path d="M0 0 C1.5625 1.75 1.5625 1.75 3 4 C2.6875 6.25 2.6875 6.25 2 8 C0.35 8.33 -1.3 8.66 -3 9 C-3 8.01 -3 7.02 -3 6 C-3.66 5.67 -4.32 5.34 -5 5 C-3.35 3.35 -1.7 1.7 0 0 Z M-6 6 C-5.67 6.66 -5.34 7.32 -5 8 C-5.66 7.67 -6.32 7.34 -7 7 C-6.67 6.67 -6.34 6.34 -6 6 Z " fill="#1F201B" transform="translate(710,190)" data-index="27" style="visibility: visible;"></path>
<path d="M0 0 C0.33 0 0.66 0 1 0 C2.32352966 6.75000125 1.52827753 9.61768503 -2.125 15.3125 C-3.053125 16.6428125 -3.053125 16.6428125 -4 18 C-5.07999887 14.7600034 -4.92129428 13.61636465 -4.1875 10.375 C-4.01605469 9.57835937 -3.84460938 8.78171875 -3.66796875 7.9609375 C-3 6 -3 6 -1 5 C-0.34444881 2.47266765 -0.34444881 2.47266765 0 0 Z " fill="#252521" transform="translate(597,505)" data-index="28" style="visibility: visible;"></path>
<path d="M0 0 C0 0.66 0 1.32 0 2 C3.63 2.33 7.26 2.66 11 3 C11 3.66 11 4.32 11 5 C12.32 5 13.64 5 15 5 C15 5.66 15 6.32 15 7 C12.24846929 6.38120598 9.49891102 5.75523814 6.75 5.125 C5.97269531 4.95097656 5.19539063 4.77695312 4.39453125 4.59765625 C3.26337891 4.33662109 3.26337891 4.33662109 2.109375 4.0703125 C1.41811523 3.91320801 0.72685547 3.75610352 0.01464844 3.59423828 C-2.14737125 2.95653155 -4.01604085 2.06200166 -6 1 C-4 0 -4 0 0 0 Z " fill="#F1F0ED" transform="translate(432,646)" data-index="29" style="visibility: visible;"></path>
<path d="M0 0 C2 2 2 2 2.1953125 5.4765625 C2.18201493 6.85950968 2.15816232 8.24238654 2.125 9.625 C2.11597656 10.33140625 2.10695313 11.0378125 2.09765625 11.765625 C2.07407603 13.51056098 2.03820461 15.25532295 2 17 C1.01 17.33 0.02 17.66 -1 18 C-1 13.05 -1 8.1 -1 3 C-1.66 2.67 -2.32 2.34 -3 2 C-2.01 2 -1.02 2 0 2 C0 1.34 0 0.68 0 0 Z " fill="#1E1E19" transform="translate(624,276)" data-index="30" style="visibility: visible;"></path>
<path d="M0 0 C0.33 0 0.66 0 1 0 C1 1.65 1 3.3 1 5 C1.66 5 2.32 5 3 5 C3 5.99 3 6.98 3 8 C3.66 8 4.32 8 5 8 C4.51171875 14.0546875 4.51171875 14.0546875 4 16 C3.01 16.66 2.02 17.32 1 18 C0.67 12.06 0.34 6.12 0 0 Z " fill="#20211C" transform="translate(342,375)" data-index="31" style="visibility: visible;"></path>
<path d="M0 0 C0 0.33 0 0.66 0 1 C-1.98 1.33 -3.96 1.66 -6 2 C-6 2.33 -6 2.66 -6 3 C-6.56847656 3.02578125 -7.13695312 3.0515625 -7.72265625 3.078125 C-13.52502403 3.50434233 -17.1456851 4.79821783 -22 8 C-20.59908008 4.61444353 -19.20330189 2.81809026 -16 1 C-10.67917416 -0.1476291 -5.41402854 -0.11049038 0 0 Z " fill="#F1EFEB" transform="translate(725,584)" data-index="32" style="visibility: visible; opacity: 1;"></path>
<path d="M0 0 C1.32 2.97 2.64 5.94 4 9 C1 9 1 9 -0.60546875 7.7578125 C-1.12753906 7.21898437 -1.64960938 6.68015625 -2.1875 6.125 C-2.71730469 5.59132813 -3.24710937 5.05765625 -3.79296875 4.5078125 C-5 3 -5 3 -5 1 C-2 0 -2 0 0 0 Z " fill="#21221E" transform="translate(315,564)" data-index="33" style="visibility: visible;"></path>
<path d="M0 0 C0.99 0.99 1.98 1.98 3 3 C2.57742724 4.4835001 2.13643678 5.96176424 1.6875 7.4375 C1.44386719 8.26121094 1.20023437 9.08492187 0.94921875 9.93359375 C0.63597656 10.61550781 0.32273437 11.29742188 0 12 C-0.99 12.33 -1.98 12.66 -3 13 C-2.52060632 8.28596212 -2.03165952 4.33420699 0 0 Z " fill="#1E1E1B" transform="translate(444,691)" data-index="34" style="visibility: visible;"></path>
<path d="M0 0 C1.1446875 0.2475 1.1446875 0.2475 2.3125 0.5 C5.03596236 1.09145396 5.03596236 1.09145396 8 1 C8.99 1.66 9.98 2.32 11 3 C9.35 3.33 7.7 3.66 6 4 C5.67 4.99 5.34 5.98 5 7 C4.67 6.34 4.34 5.68 4 5 C1.47266765 4.34444881 1.47266765 4.34444881 -1 4 C-0.67 2.68 -0.34 1.36 0 0 Z " fill="#1E1F1B" transform="translate(647,185)" data-index="35" style="visibility: visible;"></path>
<path d="M0 0 C2.28930818 4.57861635 2.28930818 4.57861635 1.875 8 C1.81054688 8.66 1.74609375 9.32 1.6796875 10 C1 12 1 12 -3 16 C-2.01 10.72 -1.02 5.44 0 0 Z " fill="#EBE9E6" transform="translate(680,425)" data-index="36" style="visibility: visible;"></path>
<path d="M0 0 C10.55808656 -0.18451025 10.55808656 -0.18451025 15 1 C15 1.33 15 1.66 15 2 C12.03 2 9.06 2 6 2 C5.67 3.65 5.34 5.3 5 7 C4.34 7 3.68 7 3 7 C2.4375 5.0625 2.4375 5.0625 2 3 C2.33 2.67 2.66 2.34 3 2 C2.01 1.34 1.02 0.68 0 0 Z " fill="#0E0E0C" transform="translate(255,430)" data-index="37" style="visibility: visible;"></path>
<path d="M0 0 C0.66 0.66 1.32 1.32 2 2 C-4.435 7.94 -4.435 7.94 -11 14 C-11.66 13.34 -12.32 12.68 -13 12 C-12.48050781 11.55269531 -11.96101562 11.10539063 -11.42578125 10.64453125 C-7.47320346 7.21798969 -3.64172918 3.75553321 0 0 Z " fill="#F0EFEC" transform="translate(549,759)" data-index="38" style="visibility: visible;"></path>
<path d="M0 0 C1.32 0.33 2.64 0.66 4 1 C3.67 2.98 3.34 4.96 3 7 C2.34 6.34 1.68 5.68 1 5 C0.34 6.65 -0.32 8.3 -1 10 C-1.66 9.67 -2.32 9.34 -3 9 C-2.30058404 5.85262818 -1.23921302 2.97411124 0 0 Z " fill="#22241F" transform="translate(442,420)" data-index="39" style="visibility: visible;"></path>
<path d="M0 0 C0.66 0 1.32 0 2 0 C0.9024777 2.99324263 0.32317108 3.84610901 -2.625 5.25 C-3.40875 5.4975 -4.1925 5.745 -5 6 C-3.38405168 3.95880212 -1.7143618 1.95927063 0 0 Z M-7 6 C-6.34 6 -5.68 6 -5 6 C-6.0975223 8.99324263 -6.67682892 9.84610901 -9.625 11.25 C-10.40875 11.4975 -11.1925 11.745 -12 12 C-10.38405168 9.95880212 -8.7143618 7.95927063 -7 6 Z " fill="#EAE8E6" transform="translate(702,205)" data-index="40" style="visibility: visible;"></path>
<path d="M0 0 C1.2375 0.185625 2.475 0.37125 3.75 0.5625 C6.76279577 0.94711223 9.10010827 1.0874594 12 0 C12.33 1.32 12.66 2.64 13 4 C9.04 3.67 5.08 3.34 1 3 C0.67 2.01 0.34 1.02 0 0 Z " fill="#1F201C" transform="translate(480,645)" data-index="41" style="visibility: visible;"></path>
<path d="M0 0 C0.12375 0.639375 0.2475 1.27875 0.375 1.9375 C0.684375 2.9584375 0.684375 2.9584375 1 4 C1.66 4.33 2.32 4.66 3 5 C2.01 5 1.02 5 0 5 C-0.12375 5.721875 -0.2475 6.44375 -0.375 7.1875 C-0.9904931 9.95721894 -1.88444374 12.3970354 -3 15 C-5 12 -5 12 -4.75 9.375 C-4.5025 8.59125 -4.255 7.8075 -4 7 C-3.34 6.67 -2.68 6.34 -2 6 C-1.27306096 4.02111039 -0.60183749 2.02045442 0 0 Z " fill="#1E201B" transform="translate(451,386)" data-index="42" style="visibility: visible;"></path>
<path d="M0 0 C-3.49332909 2.32888606 -5.86927651 2.50146441 -10 3 C-11.66934283 3.31966139 -13.3373217 3.64731066 -15 4 C-15 3.01 -15 2.02 -15 1 C-9.91913204 0.15318867 -5.15171623 -0.09038099 0 0 Z " fill="#EAE9E6" transform="translate(559,646)" data-index="43" style="visibility: visible;"></path>
<path d="M0 0 C3 1 3 1 5 2 C5 2.33 5 2.66 5 3 C-0.45769811 3.11138159 -5.61509359 2.91657981 -11 2 C-7.28475712 -0.47682859 -4.30361706 -0.43538538 0 0 Z " fill="#ECEBE9" transform="translate(269,428)" data-index="44" style="visibility: visible;"></path>
<path d="M0 0 C0.33 0 0.66 0 1 0 C1.33 5.28 1.66 10.56 2 16 C-1 13 -1 13 -1.25 9.125 C-1.13467389 5.99966243 -0.76049532 3.04198129 0 0 Z " fill="#262521" transform="translate(426,485)" data-index="45" style="visibility: visible;"></path>
<path d="M0 0 C1.32 0.66 2.64 1.32 4 2 C4 2.66 4 3.32 4 4 C3.34 4 2.68 4 2 4 C2 6.64 2 9.28 2 12 C1.01 11.67 0.02 11.34 -1 11 C-0.67 7.37 -0.34 3.74 0 0 Z " fill="#242520" transform="translate(599,429)" data-index="46" style="visibility: visible;"></path>
<path d="M0 0 C0.99 0.33 1.98 0.66 3 1 C2.34 1 1.68 1 1 1 C0.67 1.99 0.34 2.98 0 4 C-0.78375 4.309375 -1.5675 4.61875 -2.375 4.9375 C-5.35103635 6.14208614 -6.31000453 7.33158609 -8 10 C-8 9.34 -8 8.68 -8 8 C-8.66 7.67 -9.32 7.34 -10 7 C-8.4050992 5.80008401 -6.79873853 4.61538682 -5.1875 3.4375 C-3.84751953 2.44556641 -3.84751953 2.44556641 -2.48046875 1.43359375 C-1.66191406 0.96050781 -0.84335937 0.48742187 0 0 Z " fill="#0F0F0C" transform="translate(648,351)" data-index="47" style="visibility: visible;"></path>
<path d="M0 0 C3.3 0 6.6 0 10 0 C9.01 0.495 9.01 0.495 8 1 C7.34786708 3.02463255 7.34786708 3.02463255 7 5 C4.69 4.34 2.38 3.68 0 3 C0 2.01 0 1.02 0 0 Z " fill="#20211D" transform="translate(238,593)" data-index="48" style="visibility: visible;"></path>
<path d="M0 0 C0.33 0.66 0.66 1.32 1 2 C1.99 2 2.98 2 4 2 C5.29243536 6.1196377 6.26252625 9.66831683 6 14 C4.97513774 11.95027548 3.96558479 9.91969785 3.0625 7.8125 C2.06565448 5.65604893 2.06565448 5.65604893 -1 5 C-0.67 3.35 -0.34 1.7 0 0 Z " fill="#10100D" transform="translate(689,233)" data-index="49" style="visibility: visible;"></path>
<path d="M0 0 C0.66 0 1.32 0 2 0 C3.60725635 3.21451269 3.05748185 6.43612536 3 10 C2.01 10 1.02 10 0 10 C-0.144375 9.236875 -0.28875 8.47375 -0.4375 7.6875 C-0.9632594 4.91827092 -0.9632594 4.91827092 -2 2 C-1.34 1.34 -0.68 0.68 0 0 Z " fill="#2F2F2A" transform="translate(584,477)" data-index="50" style="visibility: visible;"></path>
<path d="M0 0 C1.77155654 0.11429397 3.54226229 0.24183037 5.3125 0.375 C6.79169922 0.47941406 6.79169922 0.47941406 8.30078125 0.5859375 C11 1 11 1 14 3 C11 5 11 5 7 5 C7 4.34 7 3.68 7 3 C4.69 2.34 2.38 1.68 0 1 C0 0.67 0 0.34 0 0 Z " fill="#0C0D0B" transform="translate(584,241)" data-index="51" style="visibility: visible;"></path>
<path d="M0 0 C-2.4867421 1.4346589 -4.3116189 2.0488814 -7.1875 2.5 C-8.5796875 2.7475 -8.5796875 2.7475 -10 3 C-10.33 3.66 -10.66 4.32 -11 5 C-12.32 4.01 -13.64 3.02 -15 2 C-9.92523206 0.73694665 -5.27203646 -0.27036084 0 0 Z " fill="#0B0B09" transform="translate(570,656)" data-index="52" style="visibility: visible;"></path>
<path d="M0 0 C0.33 0 0.66 0 1 0 C1 3.3 1 6.6 1 10 C0.34 10 -0.32 10 -1 10 C-1.33 11.65 -1.66 13.3 -2 15 C-3.2380014 11.42355152 -2.74926071 8.66305234 -2 5 C-1.67 5 -1.34 5 -1 5 C-0.67 3.35 -0.34 1.7 0 0 Z " fill="#242520" transform="translate(600,481)" data-index="53" style="visibility: visible;"></path>
<path d="M0 0 C1.18414294 3.55242882 0.69535532 4.69830562 -0.4375 8.1875 C-0.72496094 9.08855469 -1.01242187 9.98960937 -1.30859375 10.91796875 C-1.53675781 11.60503906 -1.76492188 12.29210937 -2 13 C-2.66 12.67 -3.32 12.34 -4 12 C-3.5317879 7.22423661 -2.75668002 3.95523655 0 0 Z " fill="#EFEDEB" transform="translate(448,387)" data-index="54" style="visibility: visible;"></path>
<path d="M0 0 C0.99 0.33 1.98 0.66 3 1 C0.03 3.64 -2.94 6.28 -6 9 C-6 6 -6 6 -4.6875 4.39453125 C-4.130625 3.87246094 -3.57375 3.35039063 -3 2.8125 C-2.443125 2.28269531 -1.88625 1.75289062 -1.3125 1.20703125 C-0.6628125 0.60955078 -0.6628125 0.60955078 0 0 Z " fill="#DEDCD9" transform="translate(532,775)" data-index="55" style="visibility: visible;"></path>
<path d="M0 0 C0.99 0 1.98 0 3 0 C3.33 2.64 3.66 5.28 4 8 C3.01 8 2.02 8 1 8 C-1.125 3.375 -1.125 3.375 0 0 Z " fill="#242520" transform="translate(579,695)" data-index="56" style="visibility: visible;"></path>
<path d="M0 0 C0.66 0.33 1.32 0.66 2 1 C0.76075855 5.95696581 -0.78577758 8.11658466 -5 11 C-3.77472971 6.94718288 -2.30119506 3.55639236 0 0 Z " fill="#0D0D0B" transform="translate(560,601)" data-index="57" style="visibility: visible;"></path>
<path d="M0 0 C2.4375 0.375 2.4375 0.375 5 1 C5.33 1.66 5.66 2.32 6 3 C5.01 4.485 5.01 4.485 4 6 C3.34 6 2.68 6 2 6 C1.34 5.34 0.68 4.68 0 4 C0 2.68 0 1.36 0 0 Z " fill="#1F201C" transform="translate(243,429)" data-index="58" style="visibility: visible;"></path>
<path d="M0 0 C-1.32 1.32 -2.64 2.64 -4 4 C-4.33 3.67 -4.66 3.34 -5 3 C-5.33 4.98 -5.66 6.96 -6 9 C-6.33 9 -6.66 9 -7 9 C-7 6.36 -7 3.72 -7 1 C-3.375 -1.125 -3.375 -1.125 0 0 Z " fill="#10110E" transform="translate(350,371)" data-index="59" style="visibility: visible;"></path>
<path d="M0 0 C0.66 0.66 1.32 1.32 2 2 C1.0409375 2.6496875 1.0409375 2.6496875 0.0625 3.3125 C-2.26746003 4.91239177 -2.26746003 4.91239177 -3 8 C-3.99 8 -4.98 8 -6 8 C-5.75 5.625 -5.75 5.625 -5 3 C-3 1.75 -3 1.75 -1 1 C-0.67 0.67 -0.34 0.34 0 0 Z " fill="#242521" transform="translate(555,303)" data-index="60" style="visibility: visible;"></path>
<path d="M0 0 C0.66 0.33 1.32 0.66 2 1 C-0.31 3.64 -2.62 6.28 -5 9 C-5.66 8.34 -6.32 7.68 -7 7 C-4.69 4.69 -2.38 2.38 0 0 Z " fill="#E9E7E4" transform="translate(580,290)" data-index="61" style="visibility: visible;"></path>
<path d="M0 0 C1.32 0.66 2.64 1.32 4 2 C3.01 2.495 3.01 2.495 2 3 C2.33 3.99 2.66 4.98 3 6 C2.34 6 1.68 6 1 6 C1 5.01 1 4.02 1 3 C0.4225 3.226875 -0.155 3.45375 -0.75 3.6875 C-3 4 -3 4 -5.25 2.5625 C-5.8275 2.046875 -6.405 1.53125 -7 1 C-5.5459375 1.0309375 -5.5459375 1.0309375 -4.0625 1.0625 C-1.12534105 1.35618499 -1.12534105 1.35618499 0 0 Z " fill="#1E1F1B" transform="translate(765,589)" data-index="62" style="visibility: visible;"></path>
<path d="M0 0 C0.33 0.66 0.66 1.32 1 2 C0.34 1.67 -0.32 1.34 -1 1 C-0.67 0.67 -0.34 0.34 0 0 Z M-5 3 C-4.01 3.33 -3.02 3.66 -2 4 C-2.99 5.98 -3.98 7.96 -5 10 C-5.66 9.34 -6.32 8.68 -7 8 C-6.46428571 4.46428571 -6.46428571 4.46428571 -5 3 Z " fill="#1E1F1B" transform="translate(627,499)" data-index="63" style="visibility: visible;"></path>
<path d="M0 0 C1.65 0 3.3 0 5 0 C5.33 0.99 5.66 1.98 6 3 C3.625 4.5625 3.625 4.5625 1 6 C0.34 5.67 -0.32 5.34 -1 5 C-1 2 -1 2 0 0 Z " fill="#1E1F1B" transform="translate(602,500)" data-index="64" style="visibility: visible;"></path>
<path d="M0 0 C2.09065618 3.39731629 2.42098999 6.04269405 2 10 C0.48046875 11.68359375 0.48046875 11.68359375 -1 13 C-1.0272415 11.58344207 -1.04650467 10.16672955 -1.0625 8.75 C-1.07410156 7.96109375 -1.08570313 7.1721875 -1.09765625 6.359375 C-1.00385306 4.09308998 -0.63241063 2.1711105 0 0 Z " fill="#F2EFEA" transform="translate(436,430)" data-index="65" style="visibility: visible;"></path>
<path d="M0 0 C-0.99 1.485 -0.99 1.485 -2 3 C-2.66 3 -3.32 3 -4 3 C-4 3.66 -4 4.32 -4 5 C-5.32 4.34 -6.64 3.68 -8 3 C-8 2.34 -8 1.68 -8 1 C-5.29120665 -0.35439668 -2.99066732 -0.06501451 0 0 Z " fill="#20211D" transform="translate(648,630)" data-index="66" style="visibility: visible;"></path>
<path d="M0 0 C0.33 1.32 0.66 2.64 1 4 C-0.8125 5.5625 -0.8125 5.5625 -3 7 C-3.99 6.67 -4.98 6.34 -6 6 C-4.02 4.02 -2.04 2.04 0 0 Z " fill="#E8E6E3" transform="translate(725,554)" data-index="67" style="visibility: visible;"></path>
<path d="M0 0 C2.475 0.495 2.475 0.495 5 1 C3.66666667 3.66666667 2.33333333 6.33333333 1 9 C0.67 6.03 0.34 3.06 0 0 Z " fill="#10110E" transform="translate(246,442)" data-index="68" style="visibility: visible;"></path>
<path d="M0 0 C2.03125 3.7578125 2.03125 3.7578125 1.75 5.9375 C0.88539626 8.31516027 -0.02691456 10.66459494 -1 13 C-2.40742022 10.18515955 -1.66652164 8.43063887 -1.0625 5.375 C-0.86785156 4.37210937 -0.67320312 3.36921875 -0.47265625 2.3359375 C-0.31667969 1.56507813 -0.16070312 0.79421875 0 0 Z " fill="#EBEBE7" transform="translate(430,411)" data-index="69" style="visibility: visible;"></path>
<path d="M0 0 C2.12046792 3.53411321 2.53199289 6.94393835 3 11 C2.01 10.67 1.02 10.34 0 10 C-1.125 2.25 -1.125 2.25 0 0 Z " fill="#E1E0DD" transform="translate(593,410)" data-index="70" style="visibility: visible;"></path>
<path d="M0 0 C0.66 0.33 1.32 0.66 2 1 C1.0409375 2.1446875 1.0409375 2.1446875 0.0625 3.3125 C-2.14232781 5.88246713 -2.14232781 5.88246713 -3 9 C-3.99 8.67 -4.98 8.34 -6 8 C-4.55746343 4.63408134 -2.66735273 2.48952921 0 0 Z " fill="#0C0D0A" transform="translate(622,370)" data-index="71" style="visibility: visible;"></path>
<path d="M0 0 C2.97 0.33 5.94 0.66 9 1 C6.37801226 3.15377564 4.35595828 4.40072174 1 5 C1 4.34 1 3.68 1 3 C1.66 2.67 2.32 2.34 3 2 C2.01 1.34 1.02 0.68 0 0 Z " fill="#0E0E0C" transform="translate(461,657)" data-index="72" style="visibility: visible;"></path>
<path d="M0 0 C1.32 0 2.64 0 4 0 C4 0.66 4 1.32 4 2 C5.65 2.33 7.3 2.66 9 3 C4.99799622 4.60080151 1.95443764 3.29279692 -2 2 C-1.34 1.34 -0.68 0.68 0 0 Z " fill="#EAE8E5" transform="translate(428,646)" data-index="73" style="visibility: visible;"></path>
<path d="M0 0 C6.75 1.875 6.75 1.875 9 3 C9 3.66 9 4.32 9 5 C5.7 4.01 2.4 3.02 -1 2 C-0.67 1.34 -0.34 0.68 0 0 Z " fill="#ECEBE9" transform="translate(308,439)" data-index="74" style="visibility: visible;"></path>
<path d="M0 0 C2 2 2 2 2.125 4.625 C2.08375 5.40875 2.0425 6.1925 2 7 C1.01 7.33 0.02 7.66 -1 8 C-1 6.68 -1 5.36 -1 4 C-1.66 3.67 -2.32 3.34 -3 3 C-2.01 2.01 -1.02 1.02 0 0 Z " fill="#24241F" transform="translate(679,418)" data-index="75" style="visibility: visible;"></path>
<path d="M0 0 C-1 3 -1 3 -4 5 C-6.33199388 5.07905064 -8.66832622 5.08798769 -11 5 C-9.125 3.9375 -9.125 3.9375 -7 3 C-6.34 3.33 -5.68 3.66 -5 4 C-5 3.34 -5 2.68 -5 2 C-2 0 -2 0 0 0 Z " fill="#E6E5E3" transform="translate(615,240)" data-index="76" style="visibility: visible;"></path>
<path d="M0 0 C-3.75 3 -3.75 3 -6 3 C-6.33 3.66 -6.66 4.32 -7 5 C-7.66 4.34 -8.32 3.68 -9 3 C-6.38997624 -0.48003168 -4.1689578 -0.27793052 0 0 Z " fill="#1D1E1A" transform="translate(553,669)" data-index="77" style="visibility: visible;"></path>
<path d="M0 0 C0.53625 0.37125 1.0725 0.7425 1.625 1.125 C0.33754964 1.51422918 -0.95519597 1.88598036 -2.25 2.25 C-2.96929688 2.45882812 -3.68859375 2.66765625 -4.4296875 2.8828125 C-5.07164062 2.96273437 -5.71359375 3.04265625 -6.375 3.125 C-7.035 2.465 -7.695 1.805 -8.375 1.125 C-2.95961538 -1.09038462 -2.95961538 -1.09038462 0 0 Z " fill="#1E1F1C" transform="translate(616.375,642.875)" data-index="78" style="visibility: visible;"></path>
<path d="M0 0 C0.66 0 1.32 0 2 0 C2.25 2.75 2.25 2.75 2 6 C0 8.375 0 8.375 -2 10 C-1.34 6.7 -0.68 3.4 0 0 Z " fill="#E7E6E3" transform="translate(583,506)" data-index="79" style="visibility: visible;"></path>
<path d="M0 0 C0.93423645 3.01031744 1.04449911 3.86650268 0 7 C-2.97 6.505 -2.97 6.505 -6 6 C-5.01 5.34 -4.02 4.68 -3 4 C-2.34 4.33 -1.68 4.66 -1 5 C-0.67 3.35 -0.34 1.7 0 0 Z " fill="#0F100D" transform="translate(777,444)" data-index="80" style="visibility: visible;"></path>
<path d="M0 0 C0.99 0.33 1.98 0.66 3 1 C1.88820837 4.33537489 0.52588702 5.63707344 -2 8 C-1.125 1.125 -1.125 1.125 0 0 Z " fill="#121210" transform="translate(351,339)" data-index="81" style="visibility: visible;"></path>
<path d="M0 0 C0.3403125 0.8353125 0.3403125 0.8353125 0.6875 1.6875 C2.35896766 4.63246684 4.55276352 6.68156544 7 9 C4.6875 8.8125 4.6875 8.8125 2 8 C0.125 5.625 0.125 5.625 -1 3 C-0.67 2.01 -0.34 1.02 0 0 Z " fill="#E1E0DD" transform="translate(574,243)" data-index="82" style="visibility: visible;"></path>
<path d="M0 0 C3.81684226 1.55500981 6.19195732 4.03595495 9 7 C6.62051228 6.82374165 5.29774151 6.30280227 3.62109375 4.59765625 C2.37884514 3.09350908 1.18623944 1.54870149 0 0 Z " fill="#EEEEEB" transform="translate(476,762)" data-index="83" style="visibility: visible;"></path>
<path d="M0 0 C1.65 1.32 3.3 2.64 5 4 C2.69 4.33 0.38 4.66 -2 5 C-1.125 1.125 -1.125 1.125 0 0 Z " fill="#20211E" transform="translate(318,670)" data-index="84" style="visibility: visible;"></path>
<path d="M0 0 C0.33 0.99 0.66 1.98 1 3 C-0.98 3.99 -0.98 3.99 -3 5 C-3.99 4.34 -4.98 3.68 -6 3 C-2.25 0 -2.25 0 0 0 Z " fill="#121310" transform="translate(677,459)" data-index="85" style="visibility: visible;"></path>
<path d="M0 0 C3 1 6 2 9 3 C9 3.33 9 3.66 9 4 C6.69 4 4.38 4 2 4 C1.34 2.68 0.68 1.36 0 0 Z " fill="#22231E" transform="translate(532,318)" data-index="86" style="visibility: visible;"></path>
</svg>