<svg version="1.1" xmlns="http://www.w3.org/2000/svg" width="1024" height="1024">

<path d="M0 0 C5.32772139 3.82335267 10.19856194 7.84074885 14.8125 12.5 C15.41288086 13.10457031 16.01326172 13.70914062 16.63183594 14.33203125 C22.63749689 20.48743547 27.89208029 27.09423341 33 34 C33.6175415 34.81839355 33.6175415 34.81839355 34.24755859 35.65332031 C43.58921296 48.04719838 51.42990215 61.44020832 58.89624023 75.02832031 C59.7787416 76.60475938 60.71656263 78.15018348 61.671875 79.68359375 C63.23040388 82.40185147 64.227779 85.10021872 65.25 88.0625 C65.6728125 89.27421875 66.095625 90.4859375 66.53125 91.734375 C67.02113804 93.15614505 67.51069323 94.5780298 68 96 C68.93100833 98.6934193 69.86392461 101.38615019 70.79980469 104.07788086 C71.42859246 105.88750362 72.05429241 107.69820254 72.67675781 109.51000977 C72.96389648 110.33815186 73.25103516 111.16629395 73.546875 112.01953125 C73.80307617 112.76307861 74.05927734 113.50662598 74.32324219 114.27270508 C74.86735399 116.00082845 74.86735399 116.00082845 76 117 C76.59425781 116.14019531 77.18851563 115.28039062 77.80078125 114.39453125 C98.31805796 85.00809059 126.63185504 57.10518427 162 47 C178.68786537 82.83232006 176.49241632 125.49529071 167 163 C167.57105469 162.73896484 168.14210938 162.47792969 168.73046875 162.20898438 C200.53520978 147.77296917 235.56358116 136.04497595 271 137 C270.11181304 178.34106592 251.62330255 220.74599092 228 254 C227.5767041 254.59844727 227.1534082 255.19689453 226.71728516 255.81347656 C217.30418258 269.02566354 206.49004373 280.58786954 195 292 C196.5303186 292.01401855 196.5303186 292.01401855 198.09155273 292.02832031 C235.22964479 292.42594207 285.49536913 294.30577501 316 319 C314.77766554 322.66700337 313.44983091 323.49566262 310.4375 325.875 C309.43460938 326.67164063 308.43171875 327.46828125 307.3984375 328.2890625 C306.84897461 328.72379883 306.29951172 329.15853516 305.73339844 329.60644531 C303.93585719 331.0515672 302.17335804 332.53204541 300.4140625 334.0234375 C250.87010513 375.7503883 184.66330665 397.50270888 120.015625 392.5 C105.30094162 391.20207742 90.99713309 388.89688978 76.60791016 385.58544922 C72.4209486 384.64551907 68.21187795 383.81984549 64 383 C64.41967041 383.44504883 64.83934082 383.89009766 65.27172852 384.34863281 C73.62689186 393.32888104 75.4948069 402.97993989 75.27734375 414.88671875 C75.02178396 420.43401901 73.4653574 425.04610002 71 430 C70.59910156 430.81597656 70.19820312 431.63195312 69.78515625 432.47265625 C65.68978997 439.96302183 59.88725146 445.91391332 54 452 C53.37996094 452.66 52.75992187 453.32 52.12109375 454 C48.98758252 457.26187193 45.65848163 460.11495911 42.125 462.9375 C33.9919216 469.49101359 26.52912893 476.77077736 19 484 C18.42588379 484.54543457 17.85176758 485.09086914 17.26025391 485.65283203 C11.78441037 490.86205514 6.97654039 495.8854464 3.12109375 502.41796875 C2.75113281 502.94003906 2.38117188 503.46210937 2 504 C1.34 504 0.68 504 0 504 C-1.07385044 502.55886158 -2.08059485 501.06778967 -3.0625 499.5625 C-7.04885418 493.92308886 -11.60540545 489.11382095 -16.5 484.25 C-17.21164307 483.54174072 -17.92328613 482.83348145 -18.65649414 482.10375977 C-23.28777043 477.55230554 -28.08475521 473.24070874 -33 469 C-35.48126877 466.78537504 -37.9498548 464.55738921 -40.41796875 462.328125 C-42.14507623 460.77085411 -43.8768935 459.21879144 -45.61328125 457.671875 C-48.08934445 455.46258037 -50.55039375 453.23857598 -53 451 C-53.639375 450.41605469 -54.27875 449.83210938 -54.9375 449.23046875 C-66.09774656 438.59335874 -72.85777231 425.52324137 -73.3125 410.0625 C-73.06911843 399.39427449 -69.48276803 392.3476739 -63 384 C-63.33 383.67 -63.66 383.34 -64 383 C-65.50617063 383.29375124 -66.99641491 383.66924608 -68.4765625 384.07421875 C-103.23267265 393.22056353 -138.45353416 396.23493794 -174 390 C-175.2679541 389.7831958 -175.2679541 389.7831958 -176.56152344 389.56201172 C-226.40908442 380.85556151 -269.61181018 358.92707565 -307.56030273 325.79443359 C-310.58010798 323.11127982 -310.58010798 323.11127982 -314 321 C-312.64865317 317.73018513 -311.54351435 316.39752387 -308.3515625 314.88671875 C-307.22959473 314.35050903 -307.22959473 314.35050903 -306.08496094 313.8034668 C-305.27317383 313.43519775 -304.46138672 313.06692871 -303.625 312.6875 C-302.78227539 312.29796143 -301.93955078 311.90842285 -301.07128906 311.50708008 C-276.2274723 300.2722561 -248.89253676 292.7258905 -221.4921875 292.90234375 C-220.64069122 292.9037587 -219.78919495 292.90517365 -218.91189575 292.90663147 C-216.23289241 292.91216081 -213.55397743 292.92469926 -210.875 292.9375 C-209.04166789 292.94252416 -207.20833444 292.94708545 -205.375 292.95117188 C-200.91663341 292.96210694 -196.45833161 292.97932128 -192 293 C-192.46784912 292.54262451 -192.93569824 292.08524902 -193.41772461 291.61401367 C-210.72218964 274.64588835 -210.72218964 274.64588835 -218 265 C-218.51095215 264.33838867 -219.0219043 263.67677734 -219.54833984 262.99511719 C-247.60086114 226.62037456 -265.87476265 184.03894419 -269 138 C-232.80646215 137.38141071 -197.27150114 146.91451657 -165 163 C-165.25394531 162.15824219 -165.50789062 161.31648437 -165.76953125 160.44921875 C-176.11886092 123.12186119 -175.05509264 81.20003512 -161 45 C-127.33174427 53.10622217 -93.05694987 85.09151538 -75.2109375 113.88671875 C-74.81132812 114.58410156 -74.41171875 115.28148437 -74 116 C-70.86271665 108.23681903 -67.86495257 100.42667414 -64.91210938 92.59179688 C-63.448382 88.72721687 -61.97564877 84.88302337 -60.31640625 81.09765625 C-59.30780732 78.72430625 -58.55228222 76.62177585 -58 74.125 C-57.67 73.09375 -57.34 72.0625 -57 71 C-55.515 70.505 -55.515 70.505 -54 70 C-53.31875294 68.00491933 -52.65572791 66.00361307 -52 64 C-50.47928053 61.23716615 -48.74489091 58.62557405 -47 56 C-46.50943115 55.25451904 -46.0188623 54.50903809 -45.51342773 53.7409668 C-44.02045533 51.48601395 -42.51392455 49.24093055 -41 47 C-40.57090332 46.36400879 -40.14180664 45.72801758 -39.69970703 45.07275391 C-28.28141176 28.29290335 -14.4700449 14.17445944 0 0 Z " fill="#1A1918" transform="translate(511,292)" data-index="1" style="visibility: visible; opacity: 1;"></path>
<path d="M0 0 C18.93478274 8.39062515 34.31857061 34.32545588 44 52 C44.75047607 53.3617334 44.75047607 53.3617334 45.51611328 54.75097656 C53.19572327 68.79642899 59.81719177 82.85418185 65 98 C65.27924316 98.79035645 65.55848633 99.58071289 65.84619141 100.39501953 C79.82764398 140.15040351 80.68207166 184.37487612 70 225 C69.7736084 225.88413574 69.5472168 226.76827148 69.31396484 227.67919922 C57.49554552 273.18206385 32.84336732 310.66189944 4 347 C0.71259032 346.72082656 -0.66976741 346.35124142 -2.96484375 343.91015625 C-3.61582031 342.97042969 -4.26679688 342.03070312 -4.9375 341.0625 C-5.7187514 339.95909004 -6.5027906 338.85765058 -7.2890625 337.7578125 C-7.71735352 337.15485352 -8.14564453 336.55189453 -8.58691406 335.93066406 C-10.0985651 333.86533297 -11.6735894 331.8649157 -13.2734375 329.8671875 C-25.98100043 313.99915762 -36.58201359 297.00442069 -46 279 C-46.62237549 277.81446533 -46.62237549 277.81446533 -47.25732422 276.60498047 C-74.74819345 223.51515496 -80.98637958 160.5785934 -63.87207031 103.21972656 C-59.59972924 89.98134069 -54.69650135 77.05612802 -47.99755859 64.84960938 C-46.93114168 62.87232731 -45.92559684 60.87110259 -44.92578125 58.859375 C-36.75494293 42.59191124 -26.10558484 28.52726745 -14 15 C-13.14921875 14.03835938 -12.2984375 13.07671875 -11.421875 12.0859375 C-7.72572474 7.93694764 -3.99340148 3.86458207 0 0 Z " fill="#FAF8F3" transform="translate(510,304)" data-index="2" style="visibility: visible; opacity: 1;"></path>
<path d="M0 0 C45.74419485 -2.04485639 95.36362341 18.94091762 130 48 C130.6089209 48.50740723 131.2178418 49.01481445 131.84521484 49.53759766 C141.30810228 57.44662064 149.99577011 65.59949471 158 75 C158.72832031 75.83917969 159.45664062 76.67835938 160.20703125 77.54296875 C176.99343422 97.20394154 190.15743204 119.13022417 202.89416504 141.54345703 C215.76282891 164.18787381 228.81348427 186.87243351 244.93139648 207.40405273 C246 209 246 209 246 211 C194.38971617 209.56238764 143.06916468 191.80112151 101 162 C100.29375488 161.50129395 99.58750977 161.00258789 98.85986328 160.48876953 C88.24076978 152.95086378 78.28929841 145.12585034 69 136 C67.95205836 134.99064092 66.90387914 133.98152844 65.85546875 132.97265625 C50.47942894 118.03867758 37.54705396 100.42755308 27.00878906 81.77832031 C26.03260656 80.05747972 25.02845536 78.35259821 24.0234375 76.6484375 C11.63927892 54.79113769 0 25.49123109 0 0 Z " fill="#FAF8F3" transform="translate(251,439)" data-index="3" style="visibility: visible; opacity: 1; stroke-width: 2px; stroke: rgb(13, 153, 255);"></path>
<path d="M0 0 C0.16262805 5.77004336 -0.33063011 10.93144017 -1.5625 16.5625 C-1.73958496 17.3762207 -1.91666992 18.18994141 -2.09912109 19.02832031 C-11.02155237 58.48976659 -29.16585235 93.76185009 -56 124 C-56.87978516 125.04414062 -56.87978516 125.04414062 -57.77734375 126.109375 C-67.35160337 137.4393057 -78.11078642 147.17735596 -90 156 C-90.5470459 156.41314453 -91.0940918 156.82628906 -91.65771484 157.25195312 C-106.67522857 168.57001961 -122.98895308 178.02320952 -140 186 C-140.67643555 186.32419922 -141.35287109 186.64839844 -142.04980469 186.98242188 C-172.8749327 201.69930477 -210.48011139 213.12049576 -245 212 C-242.40812867 207.36431984 -239.67969858 202.92370448 -236.69140625 198.52734375 C-235.85990623 197.2974465 -235.02878507 196.06729305 -234.19799805 194.83691406 C-233.76788422 194.20112427 -233.33777039 193.56533447 -232.8946228 192.91027832 C-224.09481314 179.8783914 -215.79100094 166.66392486 -208 153 C-192.07196725 125.10621893 -175.90048311 97.63038294 -154.41162109 73.58349609 C-153.02814692 72.03157401 -151.66380194 70.46441681 -150.30078125 68.89453125 C-134.62313246 51.05583179 -114.9543577 36.98534841 -94 26 C-92.91074219 25.40960938 -91.82148437 24.81921875 -90.69921875 24.2109375 C-63.48350989 9.93491297 -30.99493553 -0.27429146 0 0 Z " fill="#FAF8F3" transform="translate(772,438)" data-index="4" style="visibility: visible; opacity: 1;"></path>
<path d="M0 0 C0.87315857 -0.00067474 1.74631714 -0.00134949 2.64593506 -0.00204468 C15.39202656 0.01361247 27.64479099 0.46302522 40.125 3.25 C40.95483398 3.42160645 41.78466797 3.59321289 42.63964844 3.77001953 C59.23533888 7.21284074 76.31185601 11.79091514 91.125 20.25 C88.03200618 24.4704891 84.61427999 27.478655 80.5 30.625 C79.87319336 31.10904297 79.24638672 31.59308594 78.60058594 32.09179688 C73.54549626 35.97315225 68.45805662 39.75592842 63.125 43.25 C62.53895996 43.63591309 61.95291992 44.02182617 61.34912109 44.41943359 C30.73264418 64.38603872 -2.95201629 76.12838946 -38.875 82.25 C-39.68694824 82.39405273 -40.49889648 82.53810547 -41.33544922 82.68652344 C-87.2940017 90.51765306 -133.5813682 78.81213224 -176.875 64.25 C-176.875 63.92 -176.875 63.59 -176.875 63.25 C-176.02627319 63.11537354 -176.02627319 63.11537354 -175.16040039 62.97802734 C-142.84290394 57.78004043 -111.33629259 49.81802929 -81.875 35.25 C-81.08722168 34.86231445 -80.29944336 34.47462891 -79.48779297 34.07519531 C-61.92912759 25.34413018 -42.86759089 15.24259089 -28.875 1.25 C-19.34594996 -0.22181367 -9.62179171 0.00667442 0 0 Z " fill="#FAF7F3" transform="translate(721.875,592.75)" data-index="5" style="visibility: visible; opacity: 1;"></path>
<path d="M0 0 C0.72761536 -0.00108765 1.45523071 -0.00217529 2.20489502 -0.0032959 C29.03437636 0.00124288 29.03437636 0.00124288 33.5625 4.125 C34.48482422 5.07052734 34.48482422 5.07052734 35.42578125 6.03515625 C40.51353877 10.87687368 46.78000082 14.42939099 52.6875 18.1875 C53.56704346 18.74824219 53.56704346 18.74824219 54.46435547 19.3203125 C92.24387125 43.18331821 133.45138845 57.29521476 177.6875 63.1875 C138.7841682 89.12305453 72.26964218 88.29404537 28.578125 80.0859375 C22.90685197 78.94528318 17.29084968 77.62325566 11.6875 76.1875 C10.42679688 75.86507324 10.42679688 75.86507324 9.140625 75.53613281 C-17.03501794 68.65267954 -43.37039256 57.1483041 -65.3125 41.1875 C-66.27929688 40.49269531 -67.24609375 39.79789063 -68.2421875 39.08203125 C-75.89911753 33.46363454 -83.12701642 27.38787696 -90.3125 21.1875 C-88.16377628 18.81433911 -86.26291451 17.52534506 -83.3203125 16.28515625 C-82.53986572 15.95418945 -81.75941895 15.62322266 -80.95532227 15.28222656 C-79.70900024 14.77127441 -79.70900024 14.77127441 -78.4375 14.25 C-77.57761475 13.89518555 -76.71772949 13.54037109 -75.83178711 13.17480469 C-62.63501207 7.80570411 -49.32075246 4.59877939 -35.3125 2.1875 C-34.61656738 2.06600586 -33.92063477 1.94451172 -33.20361328 1.81933594 C-22.19889878 0.00194409 -11.12379212 0.00895996 0 0 Z " fill="#FAF7F3" transform="translate(301.3125,592.8125)" data-index="6" style="visibility: visible; opacity: 1;"></path>
<path d="M0 0 C0.71107407 0.34297119 1.42214813 0.68594238 2.1547699 1.03930664 C2.91776901 1.39581299 3.68076813 1.75231934 4.46688843 2.11962891 C6.96809335 3.29089168 9.46161255 4.47766163 11.95555115 5.66430664 C13.69046492 6.47938823 15.42598729 7.29317558 17.16209412 8.10571289 C20.74376751 9.78265134 24.32319484 11.4642547 27.90135193 13.14868164 C35.44437818 16.69247916 43.02215748 20.15990941 50.60414124 23.61938477 C52.85722381 24.64795092 55.10902022 25.67928801 57.36058044 26.71118164 C58.73854256 27.341497 60.11655103 27.97171104 61.49461365 28.60180664 C62.68651306 29.14708008 63.87841248 29.69235352 65.10643005 30.25415039 C71.50472261 33.45786976 71.50472261 33.45786976 78.26805115 32.66430664 C80.52154963 31.07851141 82.59834823 29.48597661 84.70555115 27.72680664 C85.95247163 26.72069355 87.2012196 25.71684176 88.4516449 24.71508789 C89.08570251 24.2054248 89.71976013 23.69576172 90.37303162 23.1706543 C116.2392377 2.60965307 116.2392377 2.60965307 131.26805115 3.66430664 C134.9936124 5.35774358 137.07246272 7.24484679 139.26805115 10.66430664 C140.91041625 17.69210149 138.51081111 23.61176941 135.1469574 29.72290039 C129.10494973 39.18159431 120.80158096 45.69422364 111.97068787 52.36694336 C109.40973558 54.31831996 106.9018637 56.3340808 104.39305115 58.35180664 C103.59125427 58.99504883 102.7894574 59.63829102 101.96336365 60.30102539 C101.40391052 60.7509082 100.8444574 61.20079102 100.26805115 61.66430664 C101.79791016 73.10182405 103.96405655 84.34906161 106.51805115 95.60180664 C106.66655518 96.25616699 106.8150592 96.91052734 106.96806335 97.5847168 C108.65253221 104.96916058 110.41529433 112.33103738 112.2797699 119.67211914 C112.60235779 120.94321533 112.92494568 122.21431152 113.25730896 123.52392578 C113.87514806 125.9365843 114.50043546 128.34735152 115.13426208 130.75585938 C115.41431091 131.84068604 115.69435974 132.9255127 115.9828949 134.04321289 C116.23160339 134.98753174 116.48031189 135.93185059 116.73655701 136.90478516 C117.54918976 141.12398039 117.81244982 144.46662955 116.01805115 148.41430664 C113.44371006 151.72417376 111.56555988 152.39890713 107.51805115 153.22680664 C101.48109785 152.18194934 97.99966157 148.02080256 94.47117615 143.21899414 C87.00017522 131.50165507 80.78044221 118.92807315 74.26805115 106.66430664 C73.51999207 105.25713379 73.51999207 105.25713379 72.75682068 103.8215332 C70.25185339 99.10702474 67.75506192 94.38831124 65.26805115 89.66430664 C62.51940354 91.19492609 59.81374591 92.76771055 57.12742615 94.40649414 C54.33294648 96.09773343 51.48502418 97.52467363 48.53367615 98.92211914 C39.56156234 103.40374283 39.56156234 103.40374283 34.32029724 111.52661133 C33.22871053 117.97357966 33.31078959 124.3372944 33.41307068 130.85375977 C33.20211657 134.94214991 31.97747125 137.96874569 30.26805115 141.66430664 C27.08055115 142.53930664 27.08055115 142.53930664 23.26805115 142.66430664 C18.12011133 137.76110494 15.52956339 131.47729026 12.58055115 125.10180664 C12.09521912 124.0737793 11.60988708 123.04575195 11.10984802 121.98657227 C7.46838737 114.23653945 7.46838737 114.23653945 6.32981873 110.984375 C5.13658103 108.37703129 4.30663301 107.63715009 1.85398865 106.23461914 C1.17860046 105.8354126 0.50321228 105.43620605 -0.19264221 105.02490234 C-1.263974 104.41328247 -1.263974 104.41328247 -2.35694885 103.78930664 C-17.72449458 94.55575731 -17.72449458 94.55575731 -19.4233551 89.67993164 C-19.73194885 87.72680664 -19.73194885 87.72680664 -19.73194885 84.66430664 C-14.80303652 80.52487377 -9.63687754 81.50458072 -3.60694885 81.91430664 C-2.62468323 81.9671582 -1.6424176 82.02000977 -0.63038635 82.07446289 C0.34930115 82.12989258 1.32898865 82.18532227 2.33836365 82.24243164 C3.81623352 82.32231323 3.81623352 82.32231323 5.32395935 82.40380859 C8.26805115 82.66430664 8.26805115 82.66430664 11.10862732 83.25878906 C15.43631291 84.08073305 18.05131804 84.42743909 21.87840271 82.02709961 C24.54671315 79.64033628 26.93902773 77.14022464 29.33055115 74.47680664 C30.17037537 73.59959961 31.01019958 72.72239258 31.87547302 71.81860352 C36.75329917 66.71825947 36.75329917 66.71825947 40.26805115 60.66430664 C39.68426697 60.39134766 39.10048279 60.11838867 38.49900818 59.8371582 C36.31033095 58.68653384 34.51293025 57.42596974 32.57273865 55.89868164 C31.86601013 55.34543213 31.15928162 54.79218262 30.43113708 54.22216797 C29.67606873 53.62557373 28.92100037 53.02897949 28.14305115 52.41430664 C26.5207394 51.142064 24.89834111 49.8699317 23.27586365 48.59790039 C22.44602966 47.94547363 21.61619568 47.29304688 20.76121521 46.62084961 C17.60964904 44.14761701 14.44630477 41.68980031 11.28123474 39.23388672 C9.03482819 37.48983192 6.7918791 35.74140539 4.54930115 33.99243164 C1.78969474 31.84192755 -0.98088824 29.7072133 -3.76319885 27.58618164 C-19.04876209 15.88740546 -19.04876209 15.88740546 -20.21632385 10.37915039 C-20.44078196 6.54465775 -20.24950215 4.38518445 -17.98194885 1.22680664 C-11.64995651 -3.17041026 -7.17478861 -3.31893072 0 0 Z " fill="#1A1818" transform="translate(593.7319488525391,157.335693359375)" data-index="7" style="visibility: visible; opacity: 1;"></path>
<path d="M0 0 C1.9790332 -0.00483398 1.9790332 -0.00483398 3.99804688 -0.00976562 C23.15333513 0.09459702 43.14255931 4.09866295 57.5 17.75 C61.08704014 21.6129663 63.53437931 25.4127528 65.4375 30.3125 C65.85 31.240625 66.2625 32.16875 66.6875 33.125 C69.06796152 43.24196147 66.9662828 52.52725204 62.22265625 61.6484375 C52.42322278 77.38433937 36.4360963 90.67427123 22.1015625 102.12890625 C19.0052064 104.66682863 16.02263442 107.30549535 13.0625 110 C11.62777344 111.30517578 11.62777344 111.30517578 10.1640625 112.63671875 C7.35001205 115.39835852 4.90778378 118.24485668 2.4375 121.3125 C-0.48084217 119.99766427 -2.51170929 118.59616724 -4.734375 116.30078125 C-5.31219727 115.71127686 -5.89001953 115.12177246 -6.48535156 114.5144043 C-7.08831055 113.89090088 -7.69126953 113.26739746 -8.3125 112.625 C-12.62908832 108.23343234 -16.94139803 103.9355288 -21.640625 99.94921875 C-23.98980654 97.94859463 -26.27417027 95.88239826 -28.5625 93.8125 C-31.48840247 91.16673713 -34.43602235 88.55935127 -37.4375 86 C-50.01052742 74.95406093 -63.00858004 62.92721556 -64.87109375 45.41015625 C-65.25677901 36.32902143 -62.99898138 27.2935992 -57.2734375 20.05859375 C-42.00406458 4.47546659 -21.17987966 -0.25943018 0 0 Z " fill="#FAF8F3" transform="translate(510.5625,660.6875)" data-index="8" style="visibility: visible; opacity: 1;"></path>
<path d="M0 0 C5.7062296 1.53205843 10.21006378 4.3990879 15.125 7.5625 C15.96957764 8.10261719 16.81415527 8.64273437 17.68432617 9.19921875 C29.57405671 16.87338571 40.43795677 25.60055659 51 35 C51.67804688 35.60328125 52.35609375 36.2065625 53.0546875 36.828125 C59.0872449 42.54317938 64.00612216 49.38451273 69 56 C69.48033691 56.63550781 69.96067383 57.27101563 70.45556641 57.92578125 C71.85833818 59.79550895 73.24482319 61.67604867 74.625 63.5625 C75.26369019 64.41920288 75.26369019 64.41920288 75.9152832 65.29321289 C78.78919579 69.28617108 80.25743138 72.42251453 79.76220703 77.38085938 C79.59575684 78.19361328 79.42930664 79.00636719 79.2578125 79.84375 C79.07863281 80.7615625 78.89945312 81.679375 78.71484375 82.625 C78.52019531 83.57375 78.32554687 84.5225 78.125 85.5 C75.21632018 99.78262093 74.76380973 113.911819 74.75 128.4375 C74.74866058 129.27394043 74.74732117 130.11038086 74.74594116 130.97216797 C74.7505173 144.18427337 75.42865309 157.00670804 78 170 C78.13873535 170.71027344 78.2774707 171.42054688 78.42041016 172.15234375 C79.01848851 175.15479639 79.65826814 178.14308879 80.3515625 181.125 C81.01594311 184.07068754 81.52958785 187.01776445 82 190 C78.57271356 186.70407297 75.65779082 183.35146715 72.875 179.5 C56.70216181 157.67865819 37.77644062 137.67759053 15.015625 122.6875 C14.15573975 122.11741211 13.29585449 121.54732422 12.40991211 120.95996094 C10.70695859 119.8388512 8.99442569 118.73212996 7.27172852 117.64160156 C1.38655019 113.77093483 1.38655019 113.77093483 -0.39453125 110.21875 C-0.59433594 109.1565625 -0.79414063 108.094375 -1 107 C-1.40032458 105.48279914 -1.80720342 103.96732037 -2.21875 102.453125 C-9.03221378 75.27535399 -11.06664636 46.55320037 -5 19 C-4.82887695 18.20658203 -4.65775391 17.41316406 -4.48144531 16.59570312 C-1.52211335 3.04422669 -1.52211335 3.04422669 0 0 Z " fill="#FAF8F3" transform="translate(355,347)" data-index="9" style="visibility: visible; opacity: 1;"></path>
<path d="M0 0 C10.94397066 33.39425039 13.97791651 78.2065539 -1 111 C-4.17967768 114.87920677 -7.58327588 116.73642889 -12 119 C-14.38707784 120.57254955 -16.69096988 122.25311069 -19 123.9375 C-19.59474121 124.36208496 -20.18948242 124.78666992 -20.80224609 125.22412109 C-42.7741862 140.94070459 -60.51044089 160.1407728 -76.59375 181.69140625 C-77.03396484 182.28123291 -77.47417969 182.87105957 -77.92773438 183.47875977 C-79.07598695 185.02716649 -79.07598695 185.02716649 -80 187 C-80.66 186.67 -81.32 186.34 -82 186 C-81.81824219 185.32839844 -81.63648438 184.65679688 -81.44921875 183.96484375 C-72.92190182 150.07422519 -71.95648965 112.33869841 -79.51171875 78.21484375 C-80.79161367 69.78801557 -75.53440322 63.82857311 -70.77050781 57.3203125 C-56.80507396 38.68568076 -25.73308735 0 0 0 Z " fill="#FAF8F3" transform="translate(669,349)" data-index="10" style="visibility: visible; opacity: 1;"></path>
<path d="M0 0 C6.19454415 1.24642403 12.10930465 2.88792998 18.0625 5 C18.92045166 5.30413818 19.77840332 5.60827637 20.66235352 5.92163086 C38.40212277 12.31673569 55.48932486 20.00524846 72.38061523 28.35375977 C73.54665283 28.92795654 74.71269043 29.50215332 75.9140625 30.09375 C76.9448291 30.60615234 77.9755957 31.11855469 79.03759766 31.64648438 C81.99471767 32.99758651 84.86642862 34.13100763 88 35 C89.9948096 34.12093138 89.9948096 34.12093138 91.5625 32.3125 C92.24828125 31.6525 92.9340625 30.9925 93.640625 30.3125 C94.80851563 29.1678125 94.80851563 29.1678125 96 28 C123.6986755 2.67549669 123.6986755 2.67549669 137.8125 1.75 C141 2 141 2 142 3 C142.18034842 12.91916316 134.99157548 19.01968605 128.484375 25.81640625 C126.91260975 27.40475615 125.33434903 28.98670194 123.75 30.5625 C122.92532227 31.39386475 122.10064453 32.22522949 121.25097656 33.08178711 C115.83444728 38.45443003 110.49535179 42.91145336 103.859375 46.72265625 C101.69346923 49.37543579 101.72624797 49.92642797 101.9453125 53.2265625 C102.97179073 59.93105392 104.78882133 66.48079488 106.52322388 73.02999878 C110.22535968 87.07198078 113.38801546 101.16463787 116.0625 115.4375 C116.21406555 116.2382193 116.3656311 117.0389386 116.52178955 117.86392212 C119.18549314 132.00957858 119.18549314 132.00957858 119 137 C108.70606245 127.6711191 102.44795659 115.08414631 96 103 C95.56864746 102.19369141 95.13729492 101.38738281 94.69287109 100.55664062 C89.29952834 90.4514317 84.06213989 80.27513826 79 70 C78.42636719 70.36609375 77.85273437 70.7321875 77.26171875 71.109375 C74.81975467 72.66571022 72.37559833 74.21856329 69.93115234 75.77099609 C67.76046129 77.15244473 65.59330616 78.53937058 63.42578125 79.92578125 C39.79311334 95 39.79311334 95 36 95 C36.33 105.56 36.66 116.12 37 127 C33.79146573 123.79146573 33.0041953 121.86665388 31.51953125 117.65234375 C31.19295784 116.73359215 31.19295784 116.73359215 30.85978699 115.79627991 C30.40290622 114.5058228 29.95012998 113.21390603 29.5012207 111.9206543 C28.81264472 109.93791671 28.11157132 107.95995443 27.40820312 105.98242188 C24 96.29991256 24 96.29991256 24 94 C23.20207031 93.773125 22.40414062 93.54625 21.58203125 93.3125 C17.01223808 91.63807197 12.92382934 89.37805175 8.6875 87 C7.86443359 86.54882812 7.04136719 86.09765625 6.19335938 85.6328125 C5.02063477 84.97925781 5.02063477 84.97925781 3.82421875 84.3125 C3.11354248 83.91675781 2.40286621 83.52101563 1.6706543 83.11328125 C0 82 0 82 -1 80 C1.22940319 80.28985325 3.45850714 80.58200802 5.6875 80.875 C6.36288818 80.96233398 7.03827637 81.04966797 7.73413086 81.13964844 C13.22246554 81.86157801 18.6591544 82.79221989 24.09765625 83.828125 C32.14211004 84.30451257 37.30781861 78.94068553 43 74 C46.08473991 71.24346675 49.12445368 68.43978953 52.15234375 65.62109375 C55.21843635 62.79894267 58.36519544 60.09507624 61.57421875 57.4375 C63.26444052 55.94592711 63.26444052 55.94592711 64 53 C63.47792969 52.77957031 62.95585938 52.55914062 62.41796875 52.33203125 C59.07991525 50.49313587 56.24836581 48.09519422 53.3125 45.6875 C47.67240336 41.11501555 41.96839096 36.64311667 36.1875 32.25 C30.85285762 28.18990655 25.53971021 24.11354695 20.33203125 19.890625 C18.63205039 18.51241606 16.91930226 17.1499114 15.19921875 15.796875 C9.56991369 11.31780683 4.32712974 6.78919746 0 1 C0 0.67 0 0.34 0 0 Z " fill="#F9F6F2" transform="translate(583,166)" data-index="11" style="visibility: visible; opacity: 1;"></path>
<path d="M0 0 C-0.45038438 4.6676199 -2.03403677 6.39062041 -5.5625 9.375 C-6.47644531 10.16261719 -7.39039063 10.95023437 -8.33203125 11.76171875 C-9.21246094 12.50035156 -10.09289062 13.23898437 -11 14 C-14.97888667 17.35693645 -18.8079851 20.77235013 -22.43359375 24.51171875 C-23.05073242 25.14505127 -23.66787109 25.77838379 -24.30371094 26.4309082 C-25.54148096 27.70830098 -26.77033748 28.99440303 -27.98925781 30.28979492 C-32.31414635 34.75112483 -32.31414635 34.75112483 -35.77734375 36.0078125 C-38 36 -38 36 -40.375 34.5 C-42 32 -42 32 -42.1875 28.625 C-40.57217253 23.69400035 -38.11804901 21.96763319 -34 19 C-32.82050781 18.10861328 -32.82050781 18.10861328 -31.6171875 17.19921875 C-26.21272023 13.17410059 -20.65940359 9.37530615 -15.0625 5.625 C-14.42376953 5.19606445 -13.78503906 4.76712891 -13.12695312 4.32519531 C-4.30337219 -1.53691864 -4.30337219 -1.53691864 0 0 Z " fill="#1B1A19" transform="translate(591,278)" data-index="12" style="visibility: visible;"></path>
<path d="M0 0 C7.92 0 15.84 0 24 0 C24.33 0.99 24.66 1.98 25 3 C16.42 3 7.84 3 -1 3 C-0.67 2.01 -0.34 1.02 0 0 Z " fill="#ECEBE7" transform="translate(712,582)" data-index="13" style="visibility: visible;"></path>
<path d="M0 0 C2.6908737 3.96717744 2.26267157 8.0879397 2.1875 12.6875 C2.18105469 13.49171387 2.17460938 14.29592773 2.16796875 15.12451172 C2.09861374 20.4746009 1.78487569 25.70208907 1 31 C0.67 31 0.34 31 0 31 C-1.03427938 25.05699783 -1.15006642 19.27429675 -1.125 13.25 C-1.12886719 12.30511719 -1.13273438 11.36023438 -1.13671875 10.38671875 C-1.13542969 9.48050781 -1.13414062 8.57429688 -1.1328125 7.640625 C-1.13168457 6.82110352 -1.13055664 6.00158203 -1.12939453 5.15722656 C-1 3 -1 3 0 0 Z " fill="#272625" transform="translate(683,386)" data-index="14" style="visibility: visible;"></path>
<path d="M0 0 C0.33 0 0.66 0 1 0 C1.33 8.91 1.66 17.82 2 27 C-0.98101673 24.01898327 -1.84846518 22.41672075 -3.25 18.5625 C-3.60578125 17.61503906 -3.9615625 16.66757812 -4.328125 15.69140625 C-5.01466386 12.94125929 -4.96622898 11.61996705 -4 9 C-3.34 10.65 -2.68 12.3 -2 14 C-0.12175109 12.12175109 -0.60897603 8.96064724 -0.4375 6.4375 C-0.35371094 5.23996094 -0.26992188 4.04242188 -0.18359375 2.80859375 C-0.12300781 1.88175781 -0.06242188 0.95492188 0 0 Z " fill="#EEEDEB" transform="translate(618,266)" data-index="15" style="visibility: visible;"></path>
<path d="M0 0 C11.93301302 5.43849709 22.35616539 18.62458485 30 29 C29.67 29.66 29.34 30.32 29 31 C28.47792969 30.41734375 27.95585937 29.8346875 27.41796875 29.234375 C25.40394758 26.99108697 23.38541435 24.7519489 21.36474609 22.51464844 C20.45420195 21.50409104 19.54567287 20.49171439 18.63916016 19.47753906 C13.24018409 13.43761503 7.78195193 7.67019752 1.58203125 2.42578125 C1.05996094 1.95527344 0.53789062 1.48476563 0 1 C0 0.67 0 0.34 0 0 Z " fill="#131311" transform="translate(388,484)" data-index="16" style="visibility: visible; opacity: 1;"></path>
<path d="M0 0 C1.32 0.33 2.64 0.66 4 1 C3.649375 1.78375 3.29875 2.5675 2.9375 3.375 C2.628125 4.24125 2.31875 5.1075 2 6 C2.33 6.66 2.66 7.32 3 8 C-2.67276511 8.29341888 -5.99067246 8.00559652 -11 5 C-11 4.67 -11 4.34 -11 4 C-5.555 3.01 -5.555 3.01 0 2 C0 1.34 0 0.68 0 0 Z M-15 5 C-11 6 -11 6 -11 6 Z " fill="#211E1E" transform="translate(432,670)" data-index="17" style="visibility: visible; opacity: 1;"></path>
<path d="M0 0 C0.33 0 0.66 0 1 0 C1 11.22 1 22.44 1 34 C0.67 34 0.34 34 0 34 C-0.06058594 32.78441406 -0.12117188 31.56882812 -0.18359375 30.31640625 C-0.26798332 28.73175772 -0.3526321 27.14712298 -0.4375 25.5625 C-0.47681641 24.76005859 -0.51613281 23.95761719 -0.55664062 23.13085938 C-0.4054296 19.24760439 -0.4054296 19.24760439 -2 16 C-2.12557162 13.69006618 -2.17575729 11.37581464 -2.1875 9.0625 C-2.20167969 7.79535156 -2.21585937 6.52820313 -2.23046875 5.22265625 C-2 2 -2 2 0 0 Z " fill="#272524" transform="translate(341,384)" data-index="18" style="visibility: visible;"></path>
<path d="M0 0 C0 0.66 0 1.32 0 2 C-1.14339844 2.13277344 -2.28679687 2.26554688 -3.46484375 2.40234375 C-4.9557562 2.5805031 -6.44664018 2.75890082 -7.9375 2.9375 C-8.69224609 3.02451172 -9.44699219 3.11152344 -10.22460938 3.20117188 C-13.92187458 3.34324099 -13.92187458 3.34324099 -17 5 C-18.68608966 5.07205511 -20.37500659 5.08386068 -22.0625 5.0625 C-22.98160156 5.05347656 -23.90070313 5.04445313 -24.84765625 5.03515625 C-25.55792969 5.02355469 -26.26820313 5.01195312 -27 5 C-25 2 -25 2 -22.90869141 1.47583008 C-22.06483887 1.40775146 -21.22098633 1.33967285 -20.3515625 1.26953125 C-19.42859375 1.18896484 -18.505625 1.10839844 -17.5546875 1.02539062 C-16.58789062 0.95513672 -15.62109375 0.88488281 -14.625 0.8125 C-13.6659375 0.73064453 -12.706875 0.64878906 -11.71875 0.56445312 C-7.79092525 0.2389579 -3.9445109 0 0 0 Z " fill="#252322" transform="translate(414,674)" data-index="19" style="visibility: visible; opacity: 1;"></path>
<path d="M0 0 C2 2 2 2 2.265625 4.96875 C2.26046875 6.1340625 2.2553125 7.299375 2.25 8.5 C2.25515625 9.6653125 2.2603125 10.830625 2.265625 12.03125 C2 15 2 15 0 17 C-1.07957377 13.76127868 -1.13326784 11.33971795 -1.125 7.9375 C-1.12757813 6.87402344 -1.13015625 5.81054688 -1.1328125 4.71484375 C-1 2 -1 2 0 0 Z " fill="#2B2928" transform="translate(439,694)" data-index="20" style="visibility: visible; opacity: 1;"></path>
<path d="M0 0 C-0.33 0.66 -0.66 1.32 -1 2 C-7.34942532 3.00784529 -13.58227972 3.12058347 -20 3 C-20 2.34 -20 1.68 -20 1 C-13.30386804 0.202163 -6.74233419 -0.12910853 0 0 Z " fill="#ECEBE9" transform="translate(713,593)" data-index="21" style="visibility: visible;"></path>
<path d="M0 0 C0.66 0.33 1.32 0.66 2 1 C2 11.23 2 21.46 2 32 C1.67 32 1.34 32 1 32 C0.67 24.08 0.34 16.16 0 8 C-0.33 8 -0.66 8 -1 8 C-1.04241723 5.66705225 -1.04092937 3.33297433 -1 1 C-0.67 0.67 -0.34 0.34 0 0 Z " fill="#262423" transform="translate(587,456)" data-index="22" style="visibility: visible;"></path>
<path d="M0 0 C0.99 0 1.98 0 3 0 C3.05429959 1.74965358 3.09292823 3.49979787 3.125 5.25 C3.14820313 6.22453125 3.17140625 7.1990625 3.1953125 8.203125 C2.99862781 11.0196498 2.44568916 12.60949036 1 15 C-0.44207941 12.11584117 -0.09394887 9.58278472 -0.0625 6.375 C-0.05347656 5.18648437 -0.04445313 3.99796875 -0.03515625 2.7734375 C-0.02355469 1.85820313 -0.01195312 0.94296875 0 0 Z " fill="#EAE8E5" transform="translate(575,697)" data-index="23" style="visibility: visible;"></path>
<path d="M0 0 C0 0.99 0 1.98 0 3 C-2.10388569 3.05402274 -4.20816714 3.09280256 -6.3125 3.125 C-8.07013672 3.15980469 -8.07013672 3.15980469 -9.86328125 3.1953125 C-13 3 -13 3 -16 1 C-14.27111445 0.83044205 -12.54187557 0.66448486 -10.8125 0.5 C-9.84957031 0.4071875 -8.88664062 0.314375 -7.89453125 0.21875 C-5.24812333 0.01875156 -2.65239135 -0.03879183 0 0 Z " fill="#EDECEA" transform="translate(289,593)" data-index="24" style="visibility: visible;"></path>
<path d="M0 0 C2.5999298 2.51027705 4.99091227 4.9863684 7 8 C7 8.66 7 9.32 7 10 C4.69 10 2.38 10 0 10 C-0.33 9.01 -0.66 8.02 -1 7 C0.32 7 1.64 7 3 7 C2.505 6.401875 2.01 5.80375 1.5 5.1875 C0 3 0 3 0 0 Z " fill="#E2E0DD" transform="translate(490,640)" data-index="25" style="visibility: visible; opacity: 1;"></path>
<path d="M0 0 C0 0.99 0 1.98 0 3 C-1.134375 2.979375 -2.26875 2.95875 -3.4375 2.9375 C-6.81575674 2.58422523 -6.81575674 2.58422523 -8 4 C-9.66617115 4.04063832 -11.33388095 4.042721 -13 4 C-12.67 3.01 -12.34 2.02 -12 1 C-7.95858806 0.36605303 -4.0934693 -0.12404452 0 0 Z " fill="#282725" transform="translate(275,586)" data-index="26" style="visibility: visible;"></path>
<path d="M0 0 C2.62561109 -0.08074203 5.24875676 -0.1403623 7.875 -0.1875 C8.99455078 -0.22520508 8.99455078 -0.22520508 10.13671875 -0.26367188 C12.3046875 -0.29296875 12.3046875 -0.29296875 16 0 C16.66 0.99 17.32 1.98 18 3 C15.03 3 12.06 3 9 3 C9 2.67 9 2.34 9 2 C6.03 1.67 3.06 1.34 0 1 C0 0.67 0 0.34 0 0 Z " fill="#EDEBE8" transform="translate(579,237)" data-index="27" style="visibility: visible;"></path>
<path d="M0 0 C0.66 0.66 1.32 1.32 2 2 C0.04350603 2.83764268 -1.91525556 3.66999059 -3.875 4.5 C-5.51082031 5.19609375 -5.51082031 5.19609375 -7.1796875 5.90625 C-10 7 -10 7 -12 7 C-12 6.34 -12 5.68 -12 5 C-10.35 4.67 -8.7 4.34 -7 4 C-7 3.34 -7 2.68 -7 2 C-4.69 1.34 -2.38 0.68 0 0 Z " fill="#ECECEB" transform="translate(747,654)" data-index="28" style="visibility: visible;"></path>
<path d="M0 0 C2.75328098 2.37783357 3.96944911 4.51198161 5 8 C5.07646165 10.3320802 5.09143299 12.66845878 5 15 C3.25050228 12.37575342 2.34610019 10.44272784 1.375 7.5 C0.98441406 6.33984375 0.98441406 6.33984375 0.5859375 5.15625 C0 3 0 3 0 0 Z " fill="#F1F0EE" transform="translate(448,542)" data-index="29" style="visibility: visible;"></path>
<path d="M0 0 C0.66 0.33 1.32 0.66 2 1 C1.01 1 0.02 1 -1 1 C-0.67 0.67 -0.34 0.34 0 0 Z M-3 2 C-2.34 2.33 -1.68 2.66 -1 3 C-3.31 5.64 -5.62 8.28 -8 11 C-8.66 10.34 -9.32 9.68 -10 9 C-7.69 6.69 -5.38 4.38 -3 2 Z " fill="#EDECEA" transform="translate(581,290)" data-index="30" style="visibility: visible;"></path>
<path d="M0 0 C2.34058637 2.12780579 3.70700306 4.11562221 5 7 C4.01 6.67 3.02 6.34 2 6 C1.67 5.34 1.34 4.68 1 4 C-0.65 4 -2.3 4 -4 4 C-2.68 2.68 -1.36 1.36 0 0 Z M-6 4 C-5.34 4.33 -4.68 4.66 -4 5 C-4.66 5.66 -5.32 6.32 -6 7 C-6.66 7 -7.32 7 -8 7 C-8 6.34 -8 5.68 -8 5 C-7.34 4.67 -6.68 4.34 -6 4 Z " fill="#EDECEB" transform="translate(658,246)" data-index="31" style="visibility: visible;"></path>
<path d="M0 0 C0 0.99 0 1.98 0 3 C-3.81489674 4.46726798 -6.29011622 3.43336419 -10 2 C-10 1.67 -10 1.34 -10 1 C-6.59437148 0.22157062 -3.49234244 -0.09978121 0 0 Z " fill="#E7E5E4" transform="translate(555,655)" data-index="32" style="visibility: visible;"></path>
<path d="M0 0 C0 0.66 0 1.32 0 2 C-1.61457079 3.43581474 -3.29219075 4.80144783 -5 6.125 C-5.928125 6.84945312 -6.85625 7.57390625 -7.8125 8.3203125 C-8.534375 8.87460937 -9.25625 9.42890625 -10 10 C-10 7 -10 7 -8.3203125 5.17578125 C-7.59585938 4.56089844 -6.87140625 3.94601562 -6.125 3.3125 C-5.40570312 2.68988281 -4.68640625 2.06726563 -3.9453125 1.42578125 C-2 0 -2 0 0 0 Z " fill="#EFEFED" transform="translate(696,581)" data-index="33" style="visibility: visible;"></path>
<path d="M0 0 C3.63 0.33 7.26 0.66 11 1 C10.67 1.99 10.34 2.98 10 4 C9.38125 3.814375 8.7625 3.62875 8.125 3.4375 C5.95839822 2.76313824 5.95839822 2.76313824 4 4 C2.68 2.68 1.36 1.36 0 0 Z " fill="#EAE9E7" transform="translate(582,246)" data-index="34" style="visibility: visible;"></path>
<path d="M0 0 C2.10814567 4.21629134 2.17700355 6.39790775 2 11 C1.01 11.33 0.02 11.66 -1 12 C-0.67 8.04 -0.34 4.08 0 0 Z " fill="#2D2B2A" transform="translate(675,422)" data-index="35" style="visibility: visible;"></path>
<path d="M0 0 C1.85625 -0.061875 1.85625 -0.061875 3.75 -0.125 C4.79414062 -0.15980469 4.79414062 -0.15980469 5.859375 -0.1953125 C8 0 8 0 12 2 C6.06 2.495 6.06 2.495 0 3 C0 2.01 0 1.02 0 0 Z " fill="#EEEDEA" transform="translate(753,429)" data-index="36" style="visibility: visible;"></path>
<path d="M0 0 C0.33 0.66 0.66 1.32 1 2 C-1.19621632 7.54833597 -1.19621632 7.54833597 -4.11328125 9.1875 C-4.73589844 9.455625 -5.35851562 9.72375 -6 10 C-5.38003922 8.70590711 -4.75383647 7.41480327 -4.125 6.125 C-3.77695312 5.40570313 -3.42890625 4.68640625 -3.0703125 3.9453125 C-2 2 -2 2 0 0 Z " fill="#141312" transform="translate(468,343)" data-index="37" style="visibility: visible;"></path>
<path d="M0 0 C0.33 0 0.66 0 1 0 C1.33 3.63 1.66 7.26 2 11 C0.68 9.68 -0.64 8.36 -2 7 C-1.34 4.69 -0.68 2.38 0 0 Z " fill="#DBDAD7" transform="translate(700,292)" data-index="38" style="visibility: visible;"></path>
<path d="M0 0 C0.66 0.66 1.32 1.32 2 2 C-0.97 4.475 -0.97 4.475 -4 7 C-4.66 6.67 -5.32 6.34 -6 6 C-4.02 4.02 -2.04 2.04 0 0 Z " fill="#282725" transform="translate(711,191)" data-index="39" style="visibility: visible;"></path>
<path d="M0 0 C0.99 0.33 1.98 0.66 3 1 C1.7391988 2.03319813 0.46596742 3.05124379 -0.8125 4.0625 C-1.87404297 4.91521484 -1.87404297 4.91521484 -2.95703125 5.78515625 C-3.63121094 6.18605469 -4.30539062 6.58695312 -5 7 C-5.99 6.67 -6.98 6.34 -8 6 C-6.7391988 4.96680187 -5.46596742 3.94875621 -4.1875 2.9375 C-3.47980469 2.36902344 -2.77210938 1.80054688 -2.04296875 1.21484375 C-1.36878906 0.81394531 -0.69460938 0.41304688 0 0 Z " fill="#ECEBEA" transform="translate(655,466)" data-index="40" style="visibility: visible;"></path>
<path d="M0 0 C0.66 0.33 1.32 0.66 2 1 C1.67 3.64 1.34 6.28 1 9 C0.34 8.67 -0.32 8.34 -1 8 C-1.04241723 5.66705225 -1.04092937 3.33297433 -1 1 C-0.67 0.67 -0.34 0.34 0 0 Z " fill="#F1EFEC" transform="translate(723,168)" data-index="41" style="visibility: visible;"></path>
<path d="M0 0 C-3.53411321 2.12046792 -6.94393835 2.53199289 -11 3 C-10.67 2.01 -10.34 1.02 -10 0 C-6.58729758 -1.51675663 -3.55830874 -0.72783588 0 0 Z " fill="#F2F1EF" transform="translate(712,668)" data-index="42" style="visibility: visible;"></path>
<path d="M0 0 C2.875 0.25 2.875 0.25 6 1 C6.66 2.32 7.32 3.64 8 5 C5.03 4.01 2.06 3.02 -1 2 C-0.67 1.34 -0.34 0.68 0 0 Z " fill="#EDECEA" transform="translate(411,630)" data-index="43" style="visibility: visible;"></path>
<path d="M0 0 C0.99 0.33 1.98 0.66 3 1 C3.33 3.64 3.66 6.28 4 9 C3.01 8.67 2.02 8.34 1 8 C0.67 5.36 0.34 2.72 0 0 Z " fill="#F3F2EF" transform="translate(590,426)" data-index="44" style="visibility: visible;"></path>
<path d="M0 0 C2.97 0.495 2.97 0.495 6 1 C6 4 6 4 5 7 C3.35 4.69 1.7 2.38 0 0 Z " fill="#EEEEEC" transform="translate(583,166)" data-index="45" style="visibility: visible;"></path>
<path d="M0 0 C-0.33 0.99 -0.66 1.98 -1 3 C-2.98 3 -4.96 3 -7 3 C-7.33 2.34 -7.66 1.68 -8 1 C-5.07175348 0.02391783 -3.04386724 -0.08226668 0 0 Z " fill="#242321" transform="translate(285,591)" data-index="46" style="visibility: visible;"></path>
<path d="M0 0 C2 3 2 3 1.625 6.1875 C1.41875 7.115625 1.2125 8.04375 1 9 C0.01 9 -0.98 9 -2 9 C-1.34 6.03 -0.68 3.06 0 0 Z " fill="#222120" transform="translate(578,533)" data-index="47" style="visibility: visible;"></path>
<path d="M0 0 C1.88391785 3.26545761 2.49287967 6.28111761 3 10 C1.35 8.35 -0.3 6.7 -2 5 C-1.34 3.35 -0.68 1.7 0 0 Z " fill="#E8E7E5" transform="translate(434,527)" data-index="48" style="visibility: visible;"></path>
<path d="M0 0 C0.66 0.33 1.32 0.66 2 1 C1.34 2.98 0.68 4.96 0 7 C-1.32 5.68 -2.64 4.36 -4 3 C-2.68 2.01 -1.36 1.02 0 0 Z " fill="#EEEDEB" transform="translate(438,402)" data-index="49" style="visibility: visible;"></path>
<path d="M0 0 C0.66 0 1.32 0 2 0 C3.32 2.64 4.64 5.28 6 8 C5.01 8 4.02 8 3 8 C0 2.25 0 2.25 0 0 Z " fill="#EEEDEB" transform="translate(457,567)" data-index="50" style="visibility: visible;"></path>
<path d="M0 0 C0.66 0 1.32 0 2 0 C3.4783226 2.95664519 3.06032783 5.74229737 3 9 C2.01 8.34 1.02 7.68 0 7 C-0.1875 3.375 -0.1875 3.375 0 0 Z " fill="#F2F1ED" transform="translate(438,492)" data-index="51" style="visibility: visible;"></path>
<path d="M0 0 C0.99 0 1.98 0 3 0 C2.34 2.97 1.68 5.94 1 9 C-1 6 -1 6 -0.625 2.8125 C-0.41875 1.884375 -0.2125 0.95625 0 0 Z " fill="#242221" transform="translate(765,472)" data-index="52" style="visibility: visible;"></path>
<path d="M0 0 C0 0.99 0 1.98 0 3 C-2.97 2.67 -5.94 2.34 -9 2 C-5.5647952 -0.29013653 -4.014669 -0.17842973 0 0 Z " fill="#292826" transform="translate(469,652)" data-index="53" style="visibility: visible;"></path>
<path d="M0 0 C2.01822917 0.06510417 4.03645833 0.13020833 6.0546875 0.1953125 C4.9921875 1.7578125 4.9921875 1.7578125 3.0546875 3.1953125 C-0.6328125 2.8828125 -0.6328125 2.8828125 -3.9453125 2.1953125 C-1.9453125 0.1953125 -1.9453125 0.1953125 0 0 Z " fill="#22201F" transform="translate(763.9453125,435.8046875)" data-index="54" style="visibility: visible;"></path>
<path d="M0 0 C2.31 0.66 4.62 1.32 7 2 C7.33 3.32 7.66 4.64 8 6 C1.125 2.25 1.125 2.25 0 0 Z " fill="#F2F1EF" transform="translate(374,347)" data-index="55" style="visibility: visible;"></path>
<path d="M0 0 C0.33 0 0.66 0 1 0 C1 2.64 1 5.28 1 8 C-0.5625 6.75 -0.5625 6.75 -2 5 C-1.74853421 2.86254078 -1.54074221 1.54074221 0 0 Z " fill="#D5D4D2" transform="translate(619,285)" data-index="56" style="visibility: visible;"></path>
<path d="M0 0 C3.85645121 -0.22036864 6.49223216 0.39644899 10 2 C10 2.33 10 2.66 10 3 C7.03 3 4.06 3 1 3 C0.67 2.01 0.34 1.02 0 0 Z " fill="#232121" transform="translate(584,244)" data-index="57" style="visibility: visible;"></path>
</svg>